<?xml version="1.0" encoding="UTF-8" standalone="no"?>
<!-- This is a Stata 17.0 generated SVG file (http://www.stata.com) -->

<svg version="1.1" width="5.500in" height="4.000in" viewBox="0 0 3960 2880" xmlns="http://www.w3.org/2000/svg" xmlns:xlink="http://www.w3.org/1999/xlink">
	<desc>Stata Graph - Graph</desc>
	<rect x="0" y="0" width="3960" height="2880" style="fill:#EAF2F3;stroke:none"/>
	<rect x="0.00" y="0.00" width="3959.88" height="2880.00" style="fill:#EAF2F3"/>
	<rect x="2.88" y="2.88" width="3954.12" height="2874.24" style="fill:none;stroke:#EAF2F3;stroke-width:5.76"/>
	<rect x="290.81" y="275.35" width="3568.21" height="2313.83" style="fill:#FFFFFF"/>
	<rect x="293.69" y="278.23" width="3562.45" height="2308.07" style="fill:none;stroke:#FFFFFF;stroke-width:5.76"/>
	<line x1="290.81" y1="2525.82" x2="3859.02" y2="2525.82" style="stroke:#EAF2F3;stroke-width:8.64"/>
	<line x1="290.81" y1="2097.63" x2="3859.02" y2="2097.63" style="stroke:#EAF2F3;stroke-width:8.64"/>
	<line x1="290.81" y1="1669.56" x2="3859.02" y2="1669.56" style="stroke:#EAF2F3;stroke-width:8.64"/>
	<line x1="290.81" y1="1241.38" x2="3859.02" y2="1241.38" style="stroke:#EAF2F3;stroke-width:8.64"/>
	<line x1="290.81" y1="813.19" x2="3859.02" y2="813.19" style="stroke:#EAF2F3;stroke-width:8.64"/>
	<line x1="290.81" y1="385.12" x2="3859.02" y2="385.12" style="stroke:#EAF2F3;stroke-width:8.64"/>
	<rect x="583.61" y="1334.44" width="68.19" height="1191.38" style="fill:#CAC27E"/>
	<rect x="587.92" y="1338.76" width="59.55" height="1182.74" style="fill:none;stroke:#D7D29E;stroke-width:8.64"/>
	<rect x="788.16" y="338.71" width="68.31" height="2187.10" style="fill:#CAC27E"/>
	<rect x="792.48" y="343.03" width="59.67" height="2178.46" style="fill:none;stroke:#D7D29E;stroke-width:8.64"/>
	<rect x="992.85" y="1911.25" width="68.19" height="614.56" style="fill:#CAC27E"/>
	<rect x="997.17" y="1915.57" width="59.55" height="605.92" style="fill:none;stroke:#D7D29E;stroke-width:8.64"/>
	<rect x="1265.71" y="1423.17" width="68.19" height="1102.65" style="fill:#CAC27E"/>
	<rect x="1270.03" y="1427.49" width="59.55" height="1094.01" style="fill:none;stroke:#D7D29E;stroke-width:8.64"/>
	<rect x="1470.27" y="2176.09" width="68.31" height="349.73" style="fill:#CAC27E"/>
	<rect x="1474.59" y="2180.41" width="59.67" height="341.09" style="fill:none;stroke:#D7D29E;stroke-width:8.64"/>
	<rect x="1674.96" y="1809.41" width="68.19" height="716.41" style="fill:#CAC27E"/>
	<rect x="1679.28" y="1813.73" width="59.55" height="707.77" style="fill:none;stroke:#D7D29E;stroke-width:8.64"/>
	<rect x="1947.83" y="2341.79" width="68.19" height="184.02" style="fill:#CAC27E"/>
	<rect x="1952.14" y="2346.11" width="59.55" height="175.38" style="fill:none;stroke:#D7D29E;stroke-width:8.64"/>
	<rect x="2152.38" y="2130.42" width="68.31" height="395.39" style="fill:#CAC27E"/>
	<rect x="2156.70" y="2134.74" width="59.67" height="386.75" style="fill:none;stroke:#D7D29E;stroke-width:8.64"/>
	<rect x="2357.07" y="2424.09" width="68.19" height="101.73" style="fill:#CAC27E"/>
	<rect x="2361.39" y="2428.41" width="59.55" height="93.09" style="fill:none;stroke:#D7D29E;stroke-width:8.64"/>
	<rect x="2629.94" y="2314.44" width="68.19" height="211.37" style="fill:#CAC27E"/>
	<rect x="2634.25" y="2318.76" width="59.55" height="202.73" style="fill:none;stroke:#D7D29E;stroke-width:8.64"/>
	<rect x="2834.62" y="2491.91" width="68.19" height="33.91" style="fill:#CAC27E"/>
	<rect x="2838.94" y="2496.23" width="59.55" height="25.27" style="fill:none;stroke:#D7D29E;stroke-width:8.64"/>
	<rect x="3039.18" y="2413.57" width="68.19" height="112.24" style="fill:#CAC27E"/>
	<rect x="3043.50" y="2417.89" width="59.55" height="103.61" style="fill:none;stroke:#D7D29E;stroke-width:8.64"/>
	<path d=" M583.48 2193.41 L592.02 2194.03 L600.43 2196.14 L608.85 2199.72 L617.27 2204.68 L625.68 2210.99 L634.22 2189.21 L642.63 2144.78 L651.05 2104.43 L659.46 2068.05 L667.88 2035.63 L676.42 2007.29 L684.83 1982.91 L693.25 1962.49 L701.66 1946.15 L710.08 1933.65 L718.62 1925.36 L727.03 1920.91 L735.45 1920.54 L743.86 1924.13 L752.28 1931.80 L760.82 1943.43 L769.23 1950.24 L777.65 1938.11 L786.06 1928.58 L794.60 1921.65 L803.01 1917.32 L811.43 1915.46 L819.84 1916.33 L828.26 1919.79 L836.80 1925.73 L845.21 1934.40 L853.63 1945.53 L862.04 1953.83 L870.46 1954.94 L879.00 1959.39 L887.41 1967.32 L895.83 1978.45 L904.24 1992.81 L912.66 2010.63 L921.20 2031.67 L929.61 2056.05 L938.03 2083.77 L946.44 2114.83 L954.98 2149.11 L963.39 2186.85 L971.81 2227.82 L980.22 2272.12 L988.64 2319.77 L997.18 2364.81 L1005.59 2361.22 L1014.01 2358.50 L1022.42 2356.40 L1030.84 2355.04 L1039.38 2354.42 L1047.79 2354.54 L1056.21 2355.28 L1064.62 2356.89 L1073.04 2359.12 L1081.58 2362.21 L1089.99 2361.10 L1098.41 2338.08 L1106.82 2317.17 L1115.23 2298.23 L1123.77 2281.28 L1132.19 2266.43 L1140.60 2253.56 L1149.02 2242.79 L1157.56 2234.00 L1165.97 2227.20 L1174.39 2222.50 L1182.80 2219.90 L1191.22 2219.28 L1199.76 2220.64 L1208.17 2223.98 L1216.59 2229.43 L1225.00 2236.97 L1233.42 2231.65 L1241.96 2226.33 L1250.37 2222.37 L1258.79 2219.65 L1267.20 2218.29 L1275.62 2218.29 L1284.15 2219.53 L1292.57 2222.12 L1300.98 2225.96 L1309.40 2231.03 L1317.94 2237.59 L1326.35 2236.60 L1334.77 2237.35 L1343.18 2239.82 L1351.60 2243.91 L1360.14 2249.72 L1368.55 2257.39 L1376.97 2266.68 L1385.38 2277.69 L1393.80 2290.44 L1402.34 2304.92 L1410.75 2321.00 L1419.17 2338.95 L1427.58 2358.62 L1436.00 2379.91 L1444.53 2402.93 L1452.95 2427.80 L1461.36 2432.88 L1469.78 2431.14 L1478.19 2429.78 L1486.73 2428.92 L1495.15 2428.42 L1503.56 2428.30 L1511.98 2428.67 L1520.52 2429.41 L1528.93 2430.53 L1537.35 2432.13 L1545.76 2433.99 L1554.18 2421.86 L1562.72 2407.38 L1571.13 2394.14 L1579.55 2382.14 L1587.96 2371.37 L1596.38 2361.97 L1604.91 2353.80 L1613.33 2346.87 L1621.74 2341.18 L1630.16 2336.72 L1638.57 2333.63 L1647.11 2331.77 L1655.53 2331.15 L1663.94 2331.77 L1672.36 2333.63 L1680.77 2336.84 L1689.31 2336.23 L1697.73 2332.39 L1706.14 2329.54 L1714.56 2327.44 L1723.10 2326.33 L1731.51 2325.95 L1739.93 2326.45 L1748.34 2327.81 L1756.76 2330.04 L1765.29 2333.01 L1773.71 2336.97 L1782.12 2338.82 L1790.54 2339.81 L1798.95 2342.04 L1807.49 2345.26 L1815.91 2349.59 L1824.32 2354.91 L1832.74 2361.35 L1841.15 2368.90 L1849.69 2377.44 L1858.11 2387.09 L1866.52 2397.73 L1874.94 2409.49 L1883.48 2422.36 L1891.89 2436.22 L1900.31 2451.19 L1908.72 2467.28 L1917.14 2477.43 L1925.67 2476.31 L1934.09 2475.57 L1942.50 2475.08 L1950.92 2474.71 L1959.33 2474.58 L1967.87 2474.58 L1976.29 2474.95 L1984.70 2475.45 L1993.12 2476.19 L2001.53 2477.18 L2010.07 2473.96 L2018.49 2465.55 L2026.90 2457.88 L2035.32 2450.95 L2043.73 2444.76 L2052.27 2439.19 L2060.69 2434.24 L2069.10 2430.03 L2077.52 2426.44 L2086.05 2423.60 L2094.47 2421.49 L2102.88 2420.01 L2111.30 2419.26 L2119.71 2419.14 L2128.25 2419.76 L2136.67 2421.00 L2145.08 2422.11 L2153.50 2419.76 L2161.91 2418.03 L2170.45 2416.79 L2178.87 2415.92 L2187.28 2415.55 L2195.70 2415.68 L2204.11 2416.29 L2212.65 2417.28 L2221.07 2418.77 L2229.48 2420.75 L2237.90 2422.61 L2246.43 2422.98 L2254.85 2423.97 L2263.26 2425.45 L2271.68 2427.68 L2280.09 2430.40 L2288.63 2433.74 L2297.05 2437.58 L2305.46 2442.16 L2313.88 2447.23 L2322.29 2452.93 L2330.83 2459.24 L2339.25 2466.04 L2347.66 2473.47 L2356.08 2481.51 L2364.49 2490.18 L2373.03 2499.33 L2381.45 2498.71 L2389.86 2498.22 L2398.28 2497.85 L2406.69 2497.60 L2415.23 2497.48 L2423.64 2497.48 L2432.06 2497.60 L2440.47 2497.85 L2449.01 2498.22 L2457.43 2498.71 L2465.84 2498.96 L2474.26 2494.38 L2482.67 2490.18 L2491.21 2486.34 L2499.63 2482.87 L2508.04 2479.78 L2516.46 2477.06 L2524.87 2474.83 L2533.41 2472.85 L2541.82 2471.24 L2550.24 2470.00 L2558.66 2469.14 L2567.07 2468.64 L2575.61 2468.52 L2584.02 2468.77 L2592.44 2469.38 L2600.85 2470.50 L2609.39 2469.63 L2617.81 2468.52 L2626.22 2467.78 L2634.64 2467.28 L2643.05 2466.91 L2651.59 2466.91 L2660.01 2467.16 L2668.42 2467.65 L2676.84 2468.27 L2685.25 2469.26 L2693.79 2470.50 L2702.21 2471.24 L2710.62 2472.11 L2719.04 2473.34 L2727.45 2474.83 L2735.99 2476.56 L2744.40 2478.67 L2752.82 2481.02 L2761.23 2483.62 L2769.65 2486.59 L2778.19 2489.80 L2786.60 2493.27 L2795.02 2497.11 L2803.43 2501.19 L2811.97 2505.52 L2820.39 2510.22 L2828.80 2515.17 L2837.22 2516.91 L2845.63 2516.78 L2854.17 2516.66 L2862.59 2516.53 L2871.00 2516.41 L2879.42 2516.41 L2887.83 2516.41 L2896.37 2516.53 L2904.78 2516.66 L2913.20 2516.78 L2921.61 2517.03 L2930.03 2515.17 L2938.57 2512.70 L2946.98 2510.47 L2955.40 2508.37 L2963.81 2506.39 L2972.35 2504.65 L2980.77 2503.05 L2989.18 2501.68 L2997.60 2500.32 L3006.01 2499.33 L3014.55 2498.47 L3022.97 2497.72 L3031.38 2497.11 L3039.80 2496.73 L3048.21 2496.61 L3056.75 2496.49 L3065.16 2496.24 L3073.58 2495.62 L3081.99 2495.13 L3090.41 2494.88 L3098.95 2494.63 L3107.36 2494.63" stroke-linejoin="round" style="fill:none;stroke:#1A476F;stroke-width:23.04"/>
	<line x1="290.81" y1="2589.18" x2="290.81" y2="275.35" style="stroke:#000000;stroke-width:5.76"/>
	<line x1="290.81" y1="2525.82" x2="250.84" y2="2525.82" style="stroke:#000000;stroke-width:5.76"/>
	<text x="200.73" y="2525.82" style="font-family:'Helvetica';font-size:99.99px;fill:#000000" transform="rotate(-90 200.73,2525.82)" text-anchor="middle">0</text>
	<line x1="290.81" y1="2097.63" x2="250.84" y2="2097.63" style="stroke:#000000;stroke-width:5.76"/>
	<text x="200.73" y="2097.63" style="font-family:'Helvetica';font-size:99.99px;fill:#000000" transform="rotate(-90 200.73,2097.63)" text-anchor="middle">.2</text>
	<line x1="290.81" y1="1669.56" x2="250.84" y2="1669.56" style="stroke:#000000;stroke-width:5.76"/>
	<text x="200.73" y="1669.56" style="font-family:'Helvetica';font-size:99.99px;fill:#000000" transform="rotate(-90 200.73,1669.56)" text-anchor="middle">.4</text>
	<line x1="290.81" y1="1241.38" x2="250.84" y2="1241.38" style="stroke:#000000;stroke-width:5.76"/>
	<text x="200.73" y="1241.38" style="font-family:'Helvetica';font-size:99.99px;fill:#000000" transform="rotate(-90 200.73,1241.38)" text-anchor="middle">.6</text>
	<line x1="290.81" y1="813.19" x2="250.84" y2="813.19" style="stroke:#000000;stroke-width:5.76"/>
	<text x="200.73" y="813.19" style="font-family:'Helvetica';font-size:99.99px;fill:#000000" transform="rotate(-90 200.73,813.19)" text-anchor="middle">.8</text>
	<line x1="290.81" y1="385.12" x2="250.84" y2="385.12" style="stroke:#000000;stroke-width:5.76"/>
	<text x="200.73" y="385.12" style="font-family:'Helvetica';font-size:99.99px;fill:#000000" transform="rotate(-90 200.73,385.12)" text-anchor="middle">1</text>
	<line x1="290.81" y1="2589.18" x2="3859.02" y2="2589.18" style="stroke:#000000;stroke-width:5.76"/>
	<line x1="354.17" y1="2589.18" x2="354.17" y2="2629.15" style="stroke:#000000;stroke-width:5.76"/>
	<text x="354.17" y="2719.13" style="font-family:'Helvetica';font-size:99.99px;fill:#000000" text-anchor="middle">0</text>
	<line x1="1501.34" y1="2589.18" x2="1501.34" y2="2629.15" style="stroke:#000000;stroke-width:5.76"/>
	<text x="1501.34" y="2719.13" style="font-family:'Helvetica';font-size:99.99px;fill:#000000" text-anchor="middle">5</text>
	<line x1="2648.50" y1="2589.18" x2="2648.50" y2="2629.15" style="stroke:#000000;stroke-width:5.76"/>
	<text x="2648.50" y="2719.13" style="font-family:'Helvetica';font-size:99.99px;fill:#000000" text-anchor="middle">10</text>
	<line x1="3795.66" y1="2589.18" x2="3795.66" y2="2629.15" style="stroke:#000000;stroke-width:5.76"/>
	<text x="3795.66" y="2719.13" style="font-family:'Helvetica';font-size:99.99px;fill:#000000" text-anchor="middle">15</text>
	<rect x="2685.38" y="309.88" width="1139.12" height="326.46" style="fill:#FFFFFF"/>
	<rect x="2688.25" y="312.76" width="1133.36" height="320.70" style="fill:none;stroke:#000000;stroke-width:5.76"/>
	<rect x="2728.69" y="353.07" width="374.34" height="99.99" style="fill:#CAC27E"/>
	<rect x="2733.01" y="357.39" width="365.70" height="91.35" style="fill:none;stroke:#D7D29E;stroke-width:8.64"/>
	<line x1="2728.69" y1="543.16" x2="3103.03" y2="543.16" style="stroke:#1A476F;stroke-width:23.04"/>
	<text x="3163.05" y="438.09" style="font-family:'Helvetica';font-size:99.99px;fill:#000000">Density</text>
	<text x="3163.05" y="578.18" style="font-family:'Helvetica';font-size:99.99px;fill:#000000">kdensity spell</text>
	<text x="2074.92" y="215.98" style="font-family:'Helvetica';font-size:139.96px;fill:#1E2D53" text-anchor="middle">Complete Spells</text>
</svg>
