<?xml version="1.0" encoding="UTF-8" standalone="no"?>
<!-- This is a Stata 17.0 generated SVG file (http://www.stata.com) -->

<svg version="1.1" width="5.500in" height="4.000in" viewBox="0 0 3960 2880" xmlns="http://www.w3.org/2000/svg" xmlns:xlink="http://www.w3.org/1999/xlink">
	<desc>Stata Graph - Graph</desc>
	<rect x="0" y="0" width="3960" height="2880" style="fill:#EAF2F3;stroke:none"/>
	<rect x="0.00" y="0.00" width="3959.88" height="2880.00" style="fill:#EAF2F3"/>
	<rect x="2.88" y="2.88" width="3954.12" height="2874.24" style="fill:none;stroke:#EAF2F3;stroke-width:5.76"/>
	<rect x="290.81" y="275.35" width="3568.21" height="1818.32" style="fill:#FFFFFF"/>
	<rect x="293.69" y="278.23" width="3562.45" height="1812.56" style="fill:none;stroke:#FFFFFF;stroke-width:5.76"/>
	<line x1="290.81" y1="1607.44" x2="3859.02" y2="1607.44" style="stroke:#EAF2F3;stroke-width:8.64"/>
	<line x1="290.81" y1="1184.57" x2="3859.02" y2="1184.57" style="stroke:#EAF2F3;stroke-width:8.64"/>
	<line x1="290.81" y1="761.58" x2="3859.02" y2="761.58" style="stroke:#EAF2F3;stroke-width:8.64"/>
	<line x1="290.81" y1="338.71" x2="3859.02" y2="338.71" style="stroke:#EAF2F3;stroke-width:8.64"/>
	<defs>
		<path id="path_vPgyOpTJ" d="M583.61 456.65 L583.61 456.65 L813.04 456.65 L813.04 687.95 L1042.47 687.95 L1042.47 755.52 L1271.90 755.52 L1271.90 894.62 L1501.34 894.62 L1501.34 943.38 L1730.77 943.38 L1730.77 1057.35 L1960.20 1057.35 L1960.20 1089.28 L2189.63 1089.28 L2189.63 1168.61 L2419.07 1168.61 L2419.07 1200.29 L2648.50 1200.29 L2648.50 1272.07 L2877.93 1272.07 L2877.93 1291.25 L3107.36 1291.25 L3107.36 1434.18 L3107.36 1345.82 L3107.36 1227.89 L2877.93 1227.89 L2877.93 1213.41 L2648.50 1213.41 L2648.50 1147.07 L2419.07 1147.07 L2419.07 1118.12 L2189.63 1118.12 L2189.63 1041.88 L1960.20 1041.88 L1960.20 1011.44 L1730.77 1011.44 L1730.77 900.93 L1501.34 900.93 L1501.34 854.03 L1271.90 854.03 L1271.90 719.63 L1042.47 719.63 L1042.47 655.15 L813.04 655.15 L813.04 436.60 L583.61 436.60 L583.61 456.65 Z" stroke-linejoin="round"/>
	</defs>
	<defs>
		<clipPath id="clipPath_UqfNuHNY">
			<use xlink:href="#path_vPgyOpTJ"/>
		</clipPath>
	</defs>
	<use xlink:href="#path_vPgyOpTJ" style="stroke:none;fill:#DDE3E9"/>
	<use xlink:href="#path_vPgyOpTJ" style="fill:none;stroke:#DDE3E9;stroke-width:17.28" clip-path="url(#clipPath_UqfNuHNY)"/>
	<path d=" M583.48 456.65 L812.91 456.65 L812.91 688.07 L1042.35 688.07 L1042.35 755.52 L1271.78 755.52 L1271.78 894.62 L1501.34 894.62 L1501.34 943.38 L1730.77 943.38 L1730.77 1057.48 L1960.20 1057.48 L1960.20 1089.28 L2189.63 1089.28 L2189.63 1168.73 L2419.07 1168.73 L2419.07 1200.41 L2648.50 1200.41 L2648.50 1272.19 L2877.93 1272.19 L2877.93 1291.37 L3107.36 1291.37 L3107.36 1434.18" stroke-linejoin="round" style="fill:none;stroke:#8DA3B7;stroke-width:8.64"/>
	<path d=" M583.48 436.60 L812.91 436.60 L812.91 655.15 L1042.35 655.15 L1042.35 719.63 L1271.78 719.63 L1271.78 854.15 L1501.34 854.15 L1501.34 900.93 L1730.77 900.93 L1730.77 1011.56 L1960.20 1011.56 L1960.20 1041.88 L2189.63 1041.88 L2189.63 1118.12 L2419.07 1118.12 L2419.07 1147.20 L2648.50 1147.20 L2648.50 1213.41 L2877.93 1213.41 L2877.93 1228.01 L3107.36 1228.01 L3107.36 1345.82" stroke-linejoin="round" style="fill:none;stroke:#8DA3B7;stroke-width:8.64"/>
	<defs>
		<path id="path_aXznPgjM" d="M583.61 466.80 L583.61 466.80 L813.04 466.80 L813.04 673.84 L1042.47 673.84 L1042.47 756.63 L1271.90 756.63 L1271.90 893.13 L1501.34 893.13 L1501.34 954.02 L1730.77 954.02 L1730.77 1072.08 L1960.20 1072.08 L1960.20 1118.98 L2189.63 1118.98 L2189.63 1216.13 L2419.07 1216.13 L2419.07 1266.62 L2648.50 1266.62 L2648.50 1380.60 L2877.93 1380.60 L2877.93 1444.83 L3107.36 1444.83 L3107.36 1604.72 L3107.36 1508.56 L3107.36 1370.33 L2877.93 1370.33 L2877.93 1318.84 L2648.50 1318.84 L2648.50 1212.42 L2419.07 1212.42 L2419.07 1165.89 L2189.63 1165.89 L2189.63 1071.96 L1960.20 1071.96 L1960.20 1026.91 L1730.77 1026.91 L1730.77 912.31 L1501.34 912.31 L1501.34 853.78 L1271.90 853.78 L1271.90 721.86 L1042.47 721.86 L1042.47 642.90 L813.04 642.90 L813.04 446.88 L583.61 446.88 L583.61 466.80 Z" stroke-linejoin="round"/>
	</defs>
	<defs>
		<clipPath id="clipPath_NpKVfMga">
			<use xlink:href="#path_aXznPgjM"/>
		</clipPath>
	</defs>
	<use xlink:href="#path_aXznPgjM" style="stroke:none;fill:#EEE1E2"/>
	<use xlink:href="#path_aXznPgjM" style="fill:none;stroke:#EEE1E2;stroke-width:17.28" clip-path="url(#clipPath_NpKVfMga)"/>
	<path d=" M583.48 466.92 L812.91 466.92 L812.91 673.96 L1042.35 673.96 L1042.35 756.63 L1271.78 756.63 L1271.78 893.26 L1501.34 893.26 L1501.34 954.02 L1730.77 954.02 L1730.77 1072.20 L1960.20 1072.20 L1960.20 1119.11 L2189.63 1119.11 L2189.63 1216.13 L2419.07 1216.13 L2419.07 1266.62 L2648.50 1266.62 L2648.50 1380.60 L2877.93 1380.60 L2877.93 1444.83 L3107.36 1444.83 L3107.36 1604.84" stroke-linejoin="round" style="fill:none;stroke:#C89A9D;stroke-width:8.64"/>
	<path d=" M583.48 447.00 L812.91 447.00 L812.91 642.90 L1042.35 642.90 L1042.35 721.86 L1271.78 721.86 L1271.78 853.78 L1501.34 853.78 L1501.34 912.31 L1730.77 912.31 L1730.77 1027.03 L1960.20 1027.03 L1960.20 1072.08 L2189.63 1072.08 L2189.63 1166.01 L2419.07 1166.01 L2419.07 1212.42 L2648.50 1212.42 L2648.50 1318.84 L2877.93 1318.84 L2877.93 1370.33 L3107.36 1370.33 L3107.36 1508.56" stroke-linejoin="round" style="fill:none;stroke:#C89A9D;stroke-width:8.64"/>
	<path d=" M354.05 338.84 L354.05 338.84 L354.05 338.84 L583.48 338.84 L583.48 446.26 L812.91 446.26 L812.91 671.24 L1042.35 671.24 L1042.35 737.33 L1271.78 737.33 L1271.78 874.07 L1501.34 874.07 L1501.34 921.97 L1730.77 921.97 L1730.77 1034.21 L1960.20 1034.21 L1960.20 1065.40 L2189.63 1065.40 L2189.63 1143.24 L2419.07 1143.24 L2419.07 1173.56 L2648.50 1173.56 L2648.50 1242.61 L2877.93 1242.61 L2877.93 1259.44 L3107.36 1259.44 L3107.36 1390.00" stroke-linejoin="round" style="fill:none;stroke:#1A476F;stroke-width:8.64"/>
	<path d=" M354.05 338.84 L354.05 338.84 L354.05 338.84 L583.48 338.84 L583.48 456.53 L812.91 456.53 L812.91 658.12 L1042.35 658.12 L1042.35 738.93 L1271.78 738.93 L1271.78 873.21 L1501.34 873.21 L1501.34 932.98 L1730.77 932.98 L1730.77 1049.43 L1960.20 1049.43 L1960.20 1095.35 L2189.63 1095.35 L2189.63 1190.88 L2419.07 1190.88 L2419.07 1239.39 L2648.50 1239.39 L2648.50 1349.66 L2877.93 1349.66 L2877.93 1407.58 L3107.36 1407.58 L3107.36 1557.19" stroke-linejoin="round" style="fill:none;stroke:#90353B;stroke-width:8.64"/>
	<line x1="290.81" y1="2093.67" x2="290.81" y2="275.35" style="stroke:#000000;stroke-width:5.76"/>
	<line x1="290.81" y1="2030.31" x2="250.84" y2="2030.31" style="stroke:#000000;stroke-width:5.76"/>
	<text x="200.73" y="2030.31" style="font-family:'Helvetica';font-size:99.99px;fill:#000000" transform="rotate(-90 200.73,2030.31)" text-anchor="middle">0</text>
	<line x1="290.81" y1="1607.44" x2="250.84" y2="1607.44" style="stroke:#000000;stroke-width:5.76"/>
	<text x="200.73" y="1607.44" style="font-family:'Helvetica';font-size:99.99px;fill:#000000" transform="rotate(-90 200.73,1607.44)" text-anchor="middle">.25</text>
	<line x1="290.81" y1="1184.57" x2="250.84" y2="1184.57" style="stroke:#000000;stroke-width:5.76"/>
	<text x="200.73" y="1184.57" style="font-family:'Helvetica';font-size:99.99px;fill:#000000" transform="rotate(-90 200.73,1184.57)" text-anchor="middle">.5</text>
	<line x1="290.81" y1="761.58" x2="250.84" y2="761.58" style="stroke:#000000;stroke-width:5.76"/>
	<text x="200.73" y="761.58" style="font-family:'Helvetica';font-size:99.99px;fill:#000000" transform="rotate(-90 200.73,761.58)" text-anchor="middle">.75</text>
	<line x1="290.81" y1="338.71" x2="250.84" y2="338.71" style="stroke:#000000;stroke-width:5.76"/>
	<text x="200.73" y="338.71" style="font-family:'Helvetica';font-size:99.99px;fill:#000000" transform="rotate(-90 200.73,338.71)" text-anchor="middle">1</text>
	<line x1="290.81" y1="2093.67" x2="3859.02" y2="2093.67" style="stroke:#000000;stroke-width:5.76"/>
	<line x1="354.17" y1="2093.67" x2="354.17" y2="2133.64" style="stroke:#000000;stroke-width:5.76"/>
	<text x="354.17" y="2223.62" style="font-family:'Helvetica';font-size:99.99px;fill:#000000" text-anchor="middle">0</text>
	<line x1="1501.34" y1="2093.67" x2="1501.34" y2="2133.64" style="stroke:#000000;stroke-width:5.76"/>
	<text x="1501.34" y="2223.62" style="font-family:'Helvetica';font-size:99.99px;fill:#000000" text-anchor="middle">5</text>
	<line x1="2648.50" y1="2093.67" x2="2648.50" y2="2133.64" style="stroke:#000000;stroke-width:5.76"/>
	<text x="2648.50" y="2223.62" style="font-family:'Helvetica';font-size:99.99px;fill:#000000" text-anchor="middle">10</text>
	<line x1="3795.66" y1="2093.67" x2="3795.66" y2="2133.64" style="stroke:#000000;stroke-width:5.76"/>
	<text x="3795.66" y="2223.62" style="font-family:'Helvetica';font-size:99.99px;fill:#000000" text-anchor="middle">15</text>
	<text x="2074.92" y="2333.64" style="font-family:'Helvetica';font-size:99.99px;fill:#000000" text-anchor="middle">Analysis time</text>
	<rect x="591.15" y="2418.27" width="2967.53" height="326.34" style="fill:#FFFFFF"/>
	<rect x="594.03" y="2421.15" width="2961.77" height="320.58" style="fill:none;stroke:#000000;stroke-width:5.76"/>
	<rect x="634.34" y="2461.46" width="374.34" height="99.99" style="fill:#DDE3E9"/>
	<rect x="638.66" y="2465.78" width="365.70" height="91.35" style="fill:none;stroke:#DDE3E9;stroke-width:8.64"/>
	<rect x="2144.96" y="2461.46" width="374.34" height="99.99" style="fill:#EEE1E2"/>
	<rect x="2149.28" y="2465.78" width="365.70" height="91.35" style="fill:none;stroke:#EEE1E2;stroke-width:8.64"/>
	<line x1="634.34" y1="2651.43" x2="1008.69" y2="2651.43" style="stroke:#1A476F;stroke-width:8.64"/>
	<line x1="2144.96" y1="2651.43" x2="2519.30" y2="2651.43" style="stroke:#90353B;stroke-width:8.64"/>
	<text x="1068.71" y="2546.49" style="font-family:'Helvetica';font-size:99.99px;fill:#000000">95% CI</text>
	<text x="2579.32" y="2546.49" style="font-family:'Helvetica';font-size:99.99px;fill:#000000">95% CI</text>
	<text x="1068.71" y="2686.46" style="font-family:'Helvetica';font-size:99.99px;fill:#000000">nasceu_campus = 0</text>
	<text x="2579.32" y="2686.46" style="font-family:'Helvetica';font-size:99.99px;fill:#000000">nasceu_campus = 1</text>
	<text x="2074.92" y="215.98" style="font-family:'Helvetica';font-size:139.96px;fill:#1E2D53" text-anchor="middle">Kaplan–Meier survival estimates</text>
</svg>
