<?xml version="1.0" encoding="UTF-8" standalone="no"?>
<!-- This is a Stata 17.0 generated SVG file (http://www.stata.com) -->

<svg version="1.1" width="5.500in" height="4.000in" viewBox="0 0 3960 2880" xmlns="http://www.w3.org/2000/svg" xmlns:xlink="http://www.w3.org/1999/xlink">
	<desc>Stata Graph - Graph</desc>
	<rect x="0" y="0" width="3960" height="2880" style="fill:#EAF2F3;stroke:none"/>
	<rect x="0.00" y="0.00" width="3959.88" height="2880.00" style="fill:#EAF2F3"/>
	<rect x="2.88" y="2.88" width="3954.12" height="2874.24" style="fill:none;stroke:#EAF2F3;stroke-width:5.76"/>
	<rect x="290.81" y="275.35" width="3568.21" height="2313.83" style="fill:#FFFFFF"/>
	<rect x="293.69" y="278.23" width="3562.45" height="2308.07" style="fill:none;stroke:#FFFFFF;stroke-width:5.76"/>
	<line x1="290.81" y1="2525.82" x2="3859.02" y2="2525.82" style="stroke:#EAF2F3;stroke-width:8.64"/>
	<line x1="290.81" y1="2088.47" x2="3859.02" y2="2088.47" style="stroke:#EAF2F3;stroke-width:8.64"/>
	<line x1="290.81" y1="1651.00" x2="3859.02" y2="1651.00" style="stroke:#EAF2F3;stroke-width:8.64"/>
	<line x1="290.81" y1="1213.53" x2="3859.02" y2="1213.53" style="stroke:#EAF2F3;stroke-width:8.64"/>
	<line x1="290.81" y1="776.18" x2="3859.02" y2="776.18" style="stroke:#EAF2F3;stroke-width:8.64"/>
	<line x1="290.81" y1="338.71" x2="3859.02" y2="338.71" style="stroke:#EAF2F3;stroke-width:8.64"/>
	<rect x="583.61" y="519.02" width="53.71" height="2006.79" style="fill:#CAC27E"/>
	<rect x="587.92" y="523.34" width="45.07" height="1998.15" style="fill:none;stroke:#D7D29E;stroke-width:8.64"/>
	<rect x="798.44" y="836.08" width="53.58" height="1689.74" style="fill:#CAC27E"/>
	<rect x="802.75" y="840.40" width="44.94" height="1681.10" style="fill:none;stroke:#D7D29E;stroke-width:8.64"/>
	<rect x="1013.14" y="1226.77" width="53.71" height="1299.04" style="fill:#CAC27E"/>
	<rect x="1017.46" y="1231.09" width="45.07" height="1290.40" style="fill:none;stroke:#D7D29E;stroke-width:8.64"/>
	<rect x="1227.97" y="1392.85" width="53.71" height="1132.97" style="fill:#CAC27E"/>
	<rect x="1232.29" y="1397.17" width="45.07" height="1124.33" style="fill:none;stroke:#D7D29E;stroke-width:8.64"/>
	<rect x="1496.51" y="1664.61" width="53.58" height="861.20" style="fill:#CAC27E"/>
	<rect x="1500.83" y="1668.93" width="44.94" height="852.56" style="fill:none;stroke:#D7D29E;stroke-width:8.64"/>
	<rect x="1711.22" y="1780.69" width="53.71" height="745.12" style="fill:#CAC27E"/>
	<rect x="1715.53" y="1785.01" width="45.07" height="736.48" style="fill:none;stroke:#D7D29E;stroke-width:8.64"/>
	<rect x="1926.05" y="1985.14" width="53.71" height="540.68" style="fill:#CAC27E"/>
	<rect x="1930.36" y="1989.46" width="45.07" height="532.04" style="fill:none;stroke:#D7D29E;stroke-width:8.64"/>
	<rect x="2140.88" y="2053.94" width="53.71" height="471.87" style="fill:#CAC27E"/>
	<rect x="2145.19" y="2058.26" width="45.07" height="463.23" style="fill:none;stroke:#D7D29E;stroke-width:8.64"/>
	<rect x="2409.29" y="2269.77" width="53.71" height="256.05" style="fill:#CAC27E"/>
	<rect x="2413.61" y="2274.09" width="45.07" height="247.41" style="fill:none;stroke:#D7D29E;stroke-width:8.64"/>
	<rect x="2624.12" y="2316.18" width="53.71" height="209.64" style="fill:#CAC27E"/>
	<rect x="2628.44" y="2320.50" width="45.07" height="201.00" style="fill:none;stroke:#D7D29E;stroke-width:8.64"/>
	<rect x="2838.95" y="2448.84" width="53.71" height="76.97" style="fill:#CAC27E"/>
	<rect x="2843.27" y="2453.16" width="45.07" height="68.34" style="fill:none;stroke:#D7D29E;stroke-width:8.64"/>
	<rect x="3053.66" y="2471.36" width="53.71" height="54.45" style="fill:#CAC27E"/>
	<rect x="3057.97" y="2475.68" width="45.07" height="45.81" style="fill:none;stroke:#D7D29E;stroke-width:8.64"/>
	<path d=" M583.48 1920.29 L592.02 1922.64 L600.43 1929.94 L608.85 1942.07 L617.27 1959.02 L625.68 1980.80 L634.22 2007.54 L642.63 2038.97 L651.05 2075.35 L659.46 2116.56 L667.88 2162.60 L676.42 2213.46 L684.83 2229.55 L693.25 2230.17 L701.66 2239.82 L710.08 2258.38 L718.62 2271.01 L727.03 2227.45 L735.45 2187.97 L743.86 2152.57 L752.28 2121.14 L760.82 2093.92 L769.23 2070.65 L777.65 2051.59 L786.06 2036.62 L794.60 2025.60 L803.01 2018.80 L811.43 2015.95 L819.84 2017.31 L828.26 2022.63 L836.80 2032.16 L845.21 2045.65 L853.63 2063.35 L862.04 2085.01 L870.46 2110.75 L879.00 2140.69 L887.41 2174.60 L895.83 2212.60 L904.24 2254.80 L912.66 2279.17 L921.20 2282.76 L929.61 2293.65 L938.03 2311.72 L946.44 2336.47 L954.98 2302.32 L963.39 2271.38 L971.81 2243.53 L980.22 2218.91 L988.64 2197.37 L997.18 2178.93 L1005.59 2163.71 L1014.01 2151.58 L1022.42 2142.55 L1030.84 2136.73 L1039.38 2134.01 L1047.79 2134.51 L1056.21 2138.10 L1064.62 2144.78 L1073.04 2154.55 L1081.58 2167.55 L1089.99 2183.64 L1098.41 2202.94 L1106.82 2225.34 L1115.23 2250.84 L1123.77 2279.55 L1132.19 2311.35 L1140.60 2334.99 L1149.02 2331.89 L1157.56 2334.62 L1165.97 2343.28 L1174.39 2357.88 L1182.80 2336.10 L1191.22 2308.63 L1199.76 2283.88 L1208.17 2261.85 L1216.59 2242.54 L1225.00 2226.08 L1233.42 2212.22 L1241.96 2201.21 L1250.37 2192.79 L1258.79 2187.23 L1267.20 2184.38 L1275.62 2184.26 L1284.15 2186.85 L1292.57 2192.18 L1300.98 2200.22 L1309.40 2211.11 L1317.94 2224.60 L1326.35 2240.94 L1334.77 2259.99 L1343.18 2281.77 L1351.60 2306.28 L1360.14 2333.50 L1368.55 2360.85 L1376.97 2361.84 L1385.38 2367.66 L1393.80 2378.43 L1402.34 2393.89 L1410.75 2385.60 L1419.17 2364.44 L1427.58 2345.14 L1436.00 2328.06 L1444.53 2313.08 L1452.95 2300.09 L1461.36 2289.20 L1469.78 2280.41 L1478.19 2273.73 L1486.73 2269.03 L1495.15 2266.55 L1503.56 2266.06 L1511.98 2267.67 L1520.52 2271.38 L1528.93 2277.07 L1537.35 2284.99 L1545.76 2294.89 L1554.18 2306.90 L1562.72 2321.00 L1571.13 2337.22 L1579.55 2355.41 L1587.96 2375.70 L1596.38 2398.10 L1604.91 2397.73 L1613.33 2398.35 L1621.74 2402.93 L1630.16 2411.34 L1638.57 2408.13 L1647.11 2389.32 L1655.53 2372.49 L1663.94 2357.26 L1672.36 2344.02 L1680.77 2332.39 L1689.31 2322.74 L1697.73 2314.82 L1706.14 2308.63 L1714.56 2304.30 L1723.10 2301.82 L1731.51 2301.08 L1739.93 2302.07 L1748.34 2304.92 L1756.76 2309.62 L1765.29 2316.05 L1773.71 2324.35 L1782.12 2334.37 L1790.54 2346.25 L1798.95 2359.99 L1807.49 2375.33 L1815.91 2392.66 L1824.32 2411.72 L1832.74 2418.03 L1841.15 2421.74 L1849.69 2428.42 L1858.11 2438.20 L1866.52 2443.03 L1874.94 2429.16 L1883.48 2416.67 L1891.89 2405.40 L1900.31 2395.50 L1908.72 2386.96 L1917.14 2379.66 L1925.67 2373.60 L1934.09 2368.90 L1942.50 2365.56 L1950.92 2363.45 L1959.33 2362.71 L1967.87 2363.20 L1976.29 2365.06 L1984.70 2368.28 L1993.12 2372.73 L2001.53 2378.43 L2010.07 2385.48 L2018.49 2393.89 L2026.90 2403.55 L2035.32 2414.56 L2043.73 2426.81 L2052.27 2440.43 L2060.69 2445.87 L2069.10 2445.25 L2077.52 2446.99 L2086.05 2451.32 L2094.47 2455.90 L2102.88 2443.64 L2111.30 2432.51 L2119.71 2422.48 L2128.25 2413.57 L2136.67 2405.90 L2145.08 2399.34 L2153.50 2393.89 L2161.91 2389.56 L2170.45 2386.47 L2178.87 2384.37 L2187.28 2383.50 L2195.70 2383.75 L2204.11 2385.23 L2212.65 2387.71 L2221.07 2391.42 L2229.48 2396.25 L2237.90 2402.19 L2246.43 2409.24 L2254.85 2417.53 L2263.26 2426.94 L2271.68 2437.46 L2280.09 2449.09 L2288.63 2458.37 L2297.05 2463.07 L2305.46 2469.51 L2313.88 2477.80 L2322.29 2487.70 L2330.83 2482.38 L2339.25 2476.31 L2347.66 2470.75 L2356.08 2465.80 L2364.49 2461.46 L2373.03 2457.88 L2381.45 2454.78 L2389.86 2452.31 L2398.28 2450.45 L2406.69 2449.34 L2415.23 2448.72 L2423.64 2448.72 L2432.06 2449.34 L2440.47 2450.57 L2449.01 2452.55 L2457.43 2455.03 L2465.84 2458.12 L2474.26 2461.84 L2482.67 2466.17 L2491.21 2471.24 L2499.63 2476.81 L2508.04 2483.00 L2516.46 2488.44 L2524.87 2488.20 L2533.41 2489.19 L2541.82 2491.17 L2550.24 2494.38 L2558.66 2491.29 L2567.07 2486.09 L2575.61 2481.51 L2584.02 2477.43 L2592.44 2473.72 L2600.85 2470.62 L2609.39 2468.02 L2617.81 2465.92 L2626.22 2464.31 L2634.64 2463.32 L2643.05 2462.70 L2651.59 2462.70 L2660.01 2463.07 L2668.42 2464.06 L2676.84 2465.42 L2685.25 2467.40 L2693.79 2469.88 L2702.21 2472.85 L2710.62 2476.31 L2719.04 2480.28 L2727.45 2484.85 L2735.99 2489.80 L2744.40 2495.37 L2752.82 2498.47 L2761.23 2502.30 L2769.65 2506.88 L2778.19 2512.20 L2786.60 2513.56 L2795.02 2511.58 L2803.43 2509.85 L2811.97 2508.37 L2820.39 2507.01 L2828.80 2505.77 L2837.22 2504.78 L2845.63 2504.04 L2854.17 2503.42 L2862.59 2502.92 L2871.00 2502.80 L2879.42 2502.67 L2887.83 2502.80 L2896.37 2503.17 L2904.78 2503.66 L2913.20 2504.28 L2921.61 2505.15 L2930.03 2506.26 L2938.57 2507.50 L2946.98 2508.86 L2955.40 2510.47 L2963.81 2512.33 L2972.35 2514.31 L2980.77 2514.80 L2989.18 2515.30 L2997.60 2516.04 L3006.01 2517.15 L3014.55 2517.40 L3022.97 2516.04 L3031.38 2514.80 L3039.80 2513.69 L3048.21 2512.70 L3056.75 2511.83 L3065.16 2511.09 L3073.58 2510.47 L3081.99 2510.10 L3090.41 2509.73 L3098.95 2509.48 L3107.36 2509.48" stroke-linejoin="round" style="fill:none;stroke:#1A476F;stroke-width:23.04"/>
	<line x1="290.81" y1="2589.18" x2="290.81" y2="275.35" style="stroke:#000000;stroke-width:5.76"/>
	<line x1="290.81" y1="2525.82" x2="250.84" y2="2525.82" style="stroke:#000000;stroke-width:5.76"/>
	<text x="200.73" y="2525.82" style="font-family:'Helvetica';font-size:99.99px;fill:#000000" transform="rotate(-90 200.73,2525.82)" text-anchor="middle">0</text>
	<line x1="290.81" y1="2088.47" x2="250.84" y2="2088.47" style="stroke:#000000;stroke-width:5.76"/>
	<text x="200.73" y="2088.47" style="font-family:'Helvetica';font-size:99.99px;fill:#000000" transform="rotate(-90 200.73,2088.47)" text-anchor="middle">.2</text>
	<line x1="290.81" y1="1651.00" x2="250.84" y2="1651.00" style="stroke:#000000;stroke-width:5.76"/>
	<text x="200.73" y="1651.00" style="font-family:'Helvetica';font-size:99.99px;fill:#000000" transform="rotate(-90 200.73,1651.00)" text-anchor="middle">.4</text>
	<line x1="290.81" y1="1213.53" x2="250.84" y2="1213.53" style="stroke:#000000;stroke-width:5.76"/>
	<text x="200.73" y="1213.53" style="font-family:'Helvetica';font-size:99.99px;fill:#000000" transform="rotate(-90 200.73,1213.53)" text-anchor="middle">.6</text>
	<line x1="290.81" y1="776.18" x2="250.84" y2="776.18" style="stroke:#000000;stroke-width:5.76"/>
	<text x="200.73" y="776.18" style="font-family:'Helvetica';font-size:99.99px;fill:#000000" transform="rotate(-90 200.73,776.18)" text-anchor="middle">.8</text>
	<line x1="290.81" y1="338.71" x2="250.84" y2="338.71" style="stroke:#000000;stroke-width:5.76"/>
	<text x="200.73" y="338.71" style="font-family:'Helvetica';font-size:99.99px;fill:#000000" transform="rotate(-90 200.73,338.71)" text-anchor="middle">1</text>
	<line x1="290.81" y1="2589.18" x2="3859.02" y2="2589.18" style="stroke:#000000;stroke-width:5.76"/>
	<line x1="354.17" y1="2589.18" x2="354.17" y2="2629.15" style="stroke:#000000;stroke-width:5.76"/>
	<text x="354.17" y="2719.13" style="font-family:'Helvetica';font-size:99.99px;fill:#000000" text-anchor="middle">0</text>
	<line x1="1501.34" y1="2589.18" x2="1501.34" y2="2629.15" style="stroke:#000000;stroke-width:5.76"/>
	<text x="1501.34" y="2719.13" style="font-family:'Helvetica';font-size:99.99px;fill:#000000" text-anchor="middle">5</text>
	<line x1="2648.50" y1="2589.18" x2="2648.50" y2="2629.15" style="stroke:#000000;stroke-width:5.76"/>
	<text x="2648.50" y="2719.13" style="font-family:'Helvetica';font-size:99.99px;fill:#000000" text-anchor="middle">10</text>
	<line x1="3795.66" y1="2589.18" x2="3795.66" y2="2629.15" style="stroke:#000000;stroke-width:5.76"/>
	<text x="3795.66" y="2719.13" style="font-family:'Helvetica';font-size:99.99px;fill:#000000" text-anchor="middle">15</text>
	<rect x="2685.38" y="309.88" width="1139.12" height="326.46" style="fill:#FFFFFF"/>
	<rect x="2688.25" y="312.76" width="1133.36" height="320.70" style="fill:none;stroke:#000000;stroke-width:5.76"/>
	<rect x="2728.69" y="353.07" width="374.34" height="99.99" style="fill:#CAC27E"/>
	<rect x="2733.01" y="357.39" width="365.70" height="91.35" style="fill:none;stroke:#D7D29E;stroke-width:8.64"/>
	<line x1="2728.69" y1="543.16" x2="3103.03" y2="543.16" style="stroke:#1A476F;stroke-width:23.04"/>
	<text x="3163.05" y="438.09" style="font-family:'Helvetica';font-size:99.99px;fill:#000000">Density</text>
	<text x="3163.05" y="578.18" style="font-family:'Helvetica';font-size:99.99px;fill:#000000">kdensity spell</text>
	<text x="2074.92" y="215.98" style="font-family:'Helvetica';font-size:139.96px;fill:#1E2D53" text-anchor="middle">Incomplete Spells</text>
</svg>
