<?xml version="1.0" encoding="UTF-8" standalone="no"?>
<!-- This is a Stata 17.0 generated SVG file (http://www.stata.com) -->

<svg version="1.1" width="5.500in" height="4.000in" viewBox="0 0 3960 2880" xmlns="http://www.w3.org/2000/svg" xmlns:xlink="http://www.w3.org/1999/xlink">
	<desc>Stata Graph - Graph</desc>
	<rect x="0" y="0" width="3960" height="2880" style="fill:#EAF2F3;stroke:none"/>
	<rect x="0.00" y="0.00" width="3959.88" height="2880.00" style="fill:#EAF2F3"/>
	<rect x="2.88" y="2.88" width="3954.12" height="2874.24" style="fill:none;stroke:#EAF2F3;stroke-width:5.76"/>
	<rect x="290.81" y="275.35" width="3568.21" height="1818.32" style="fill:#FFFFFF"/>
	<rect x="293.69" y="278.23" width="3562.45" height="1812.56" style="fill:none;stroke:#FFFFFF;stroke-width:5.76"/>
	<line x1="290.81" y1="1607.44" x2="3859.02" y2="1607.44" style="stroke:#EAF2F3;stroke-width:8.64"/>
	<line x1="290.81" y1="1184.57" x2="3859.02" y2="1184.57" style="stroke:#EAF2F3;stroke-width:8.64"/>
	<line x1="290.81" y1="761.58" x2="3859.02" y2="761.58" style="stroke:#EAF2F3;stroke-width:8.64"/>
	<line x1="290.81" y1="338.71" x2="3859.02" y2="338.71" style="stroke:#EAF2F3;stroke-width:8.64"/>
	<defs>
		<path id="path_RgTAYokd" d="M583.61 444.15 L583.61 444.15 L813.04 444.15 L813.04 671.74 L1042.47 671.74 L1042.47 727.30 L1271.90 727.30 L1271.90 866.15 L1501.34 866.15 L1501.34 907.36 L1730.77 907.36 L1730.77 1023.57 L1960.20 1023.57 L1960.20 1049.43 L2189.63 1049.43 L2189.63 1142.62 L2419.07 1142.62 L2419.07 1172.94 L2648.50 1172.94 L2648.50 1253.38 L2877.93 1253.38 L2877.93 1266.25 L3107.36 1266.25 L3107.36 1404.11 L3107.36 1324.41 L3107.36 1209.94 L2877.93 1209.94 L2877.93 1199.92 L2648.50 1199.92 L2648.50 1125.05 L2419.07 1125.05 L2419.07 1097.20 L2189.63 1097.20 L2189.63 1007.48 L1960.20 1007.48 L1960.20 982.85 L1730.77 982.85 L1730.77 870.24 L1501.34 870.24 L1501.34 830.64 L1271.90 830.64 L1271.90 696.36 L1042.47 696.36 L1042.47 643.15 L813.04 643.15 L813.04 427.20 L583.61 427.20 L583.61 444.15 Z" stroke-linejoin="round"/>
	</defs>
	<defs>
		<clipPath id="clipPath_SjIOFVrz">
			<use xlink:href="#path_RgTAYokd"/>
		</clipPath>
	</defs>
	<use xlink:href="#path_RgTAYokd" style="stroke:none;fill:#DDE3E9"/>
	<use xlink:href="#path_RgTAYokd" style="fill:none;stroke:#DDE3E9;stroke-width:17.28" clip-path="url(#clipPath_SjIOFVrz)"/>
	<path d=" M583.48 444.15 L812.91 444.15 L812.91 671.86 L1042.35 671.86 L1042.35 727.43 L1271.78 727.43 L1271.78 866.28 L1501.34 866.28 L1501.34 907.36 L1730.77 907.36 L1730.77 1023.69 L1960.20 1023.69 L1960.20 1049.43 L2189.63 1049.43 L2189.63 1142.74 L2419.07 1142.74 L2419.07 1173.06 L2648.50 1173.06 L2648.50 1253.50 L2877.93 1253.50 L2877.93 1266.37 L3107.36 1266.37 L3107.36 1404.11" stroke-linejoin="round" style="fill:none;stroke:#8DA3B7;stroke-width:8.64"/>
	<path d=" M583.48 427.32 L812.91 427.32 L812.91 643.15 L1042.35 643.15 L1042.35 696.36 L1271.78 696.36 L1271.78 830.64 L1501.34 830.64 L1501.34 870.24 L1730.77 870.24 L1730.77 982.85 L1960.20 982.85 L1960.20 1007.60 L2189.63 1007.60 L2189.63 1097.33 L2419.07 1097.33 L2419.07 1125.17 L2648.50 1125.17 L2648.50 1200.04 L2877.93 1200.04 L2877.93 1210.07 L3107.36 1210.07 L3107.36 1324.41" stroke-linejoin="round" style="fill:none;stroke:#8DA3B7;stroke-width:8.64"/>
	<defs>
		<path id="path_JMNIIAoq" d="M583.61 489.94 L583.61 489.94 L813.04 489.94 L813.04 694.38 L1042.47 694.38 L1042.47 799.94 L1271.90 799.94 L1271.90 936.20 L1501.34 936.20 L1501.34 1011.94 L1730.77 1011.94 L1730.77 1127.89 L1960.20 1127.89 L1960.20 1187.17 L2189.63 1187.17 L2189.63 1268.60 L2419.07 1268.60 L2419.07 1326.52 L2648.50 1326.52 L2648.50 1440.74 L2877.93 1440.74 L2877.93 1528.98 L3107.36 1528.98 L3107.36 1703.22 L3107.36 1594.32 L3107.36 1440.74 L2877.93 1440.74 L2877.93 1370.45 L2648.50 1370.45 L2648.50 1264.64 L2419.07 1264.64 L2419.07 1211.67 L2189.63 1211.67 L2189.63 1132.72 L1960.20 1132.72 L1960.20 1075.54 L1730.77 1075.54 L1730.77 962.93 L1501.34 962.93 L1501.34 889.91 L1271.90 889.91 L1271.90 758.36 L1042.47 758.36 L1042.47 657.75 L813.04 657.75 L813.04 465.07 L583.61 465.07 L583.61 489.94 Z" stroke-linejoin="round"/>
	</defs>
	<defs>
		<clipPath id="clipPath_WZSYvZNC">
			<use xlink:href="#path_JMNIIAoq"/>
		</clipPath>
	</defs>
	<use xlink:href="#path_JMNIIAoq" style="stroke:none;fill:#EEE1E2"/>
	<use xlink:href="#path_JMNIIAoq" style="fill:none;stroke:#EEE1E2;stroke-width:17.28" clip-path="url(#clipPath_WZSYvZNC)"/>
	<path d=" M583.48 490.07 L812.91 490.07 L812.91 694.38 L1042.35 694.38 L1042.35 799.94 L1271.78 799.94 L1271.78 936.20 L1501.34 936.20 L1501.34 1011.94 L1730.77 1011.94 L1730.77 1127.89 L1960.20 1127.89 L1960.20 1187.29 L2189.63 1187.29 L2189.63 1268.72 L2419.07 1268.72 L2419.07 1326.52 L2648.50 1326.52 L2648.50 1440.74 L2877.93 1440.74 L2877.93 1529.10 L3107.36 1529.10 L3107.36 1703.22" stroke-linejoin="round" style="fill:none;stroke:#C89A9D;stroke-width:8.64"/>
	<path d=" M583.48 465.07 L812.91 465.07 L812.91 657.75 L1042.35 657.75 L1042.35 758.36 L1271.78 758.36 L1271.78 890.04 L1501.34 890.04 L1501.34 962.93 L1730.77 962.93 L1730.77 1075.67 L1960.20 1075.67 L1960.20 1132.84 L2189.63 1132.84 L2189.63 1211.80 L2419.07 1211.80 L2419.07 1264.76 L2648.50 1264.76 L2648.50 1370.57 L2877.93 1370.57 L2877.93 1440.87 L3107.36 1440.87 L3107.36 1594.44" stroke-linejoin="round" style="fill:none;stroke:#C89A9D;stroke-width:8.64"/>
	<path d=" M354.05 338.84 L354.05 338.84 L354.05 338.84 L583.48 338.84 L583.48 435.37 L812.91 435.37 L812.91 657.26 L1042.35 657.26 L1042.35 711.58 L1271.78 711.58 L1271.78 848.21 L1501.34 848.21 L1501.34 888.55 L1730.77 888.55 L1730.77 1003.03 L1960.20 1003.03 L1960.20 1028.27 L2189.63 1028.27 L2189.63 1119.85 L2419.07 1119.85 L2419.07 1148.93 L2648.50 1148.93 L2648.50 1226.65 L2877.93 1226.65 L2877.93 1238.03 L3107.36 1238.03 L3107.36 1364.26" stroke-linejoin="round" style="fill:none;stroke:#1A476F;stroke-width:8.64"/>
	<path d=" M354.05 338.84 L354.05 338.84 L354.05 338.84 L583.48 338.84 L583.48 477.07 L812.91 477.07 L812.91 675.70 L1042.35 675.70 L1042.35 778.78 L1271.78 778.78 L1271.78 912.81 L1501.34 912.81 L1501.34 987.18 L1730.77 987.18 L1730.77 1101.53 L1960.20 1101.53 L1960.20 1159.82 L2189.63 1159.82 L2189.63 1240.01 L2419.07 1240.01 L2419.07 1295.46 L2648.50 1295.46 L2648.50 1405.72 L2877.93 1405.72 L2877.93 1485.17 L3107.36 1485.17 L3107.36 1650.13" stroke-linejoin="round" style="fill:none;stroke:#90353B;stroke-width:8.64"/>
	<line x1="290.81" y1="2093.67" x2="290.81" y2="275.35" style="stroke:#000000;stroke-width:5.76"/>
	<line x1="290.81" y1="2030.31" x2="250.84" y2="2030.31" style="stroke:#000000;stroke-width:5.76"/>
	<text x="200.73" y="2030.31" style="font-family:'Helvetica';font-size:99.99px;fill:#000000" transform="rotate(-90 200.73,2030.31)" text-anchor="middle">0</text>
	<line x1="290.81" y1="1607.44" x2="250.84" y2="1607.44" style="stroke:#000000;stroke-width:5.76"/>
	<text x="200.73" y="1607.44" style="font-family:'Helvetica';font-size:99.99px;fill:#000000" transform="rotate(-90 200.73,1607.44)" text-anchor="middle">.25</text>
	<line x1="290.81" y1="1184.57" x2="250.84" y2="1184.57" style="stroke:#000000;stroke-width:5.76"/>
	<text x="200.73" y="1184.57" style="font-family:'Helvetica';font-size:99.99px;fill:#000000" transform="rotate(-90 200.73,1184.57)" text-anchor="middle">.5</text>
	<line x1="290.81" y1="761.58" x2="250.84" y2="761.58" style="stroke:#000000;stroke-width:5.76"/>
	<text x="200.73" y="761.58" style="font-family:'Helvetica';font-size:99.99px;fill:#000000" transform="rotate(-90 200.73,761.58)" text-anchor="middle">.75</text>
	<line x1="290.81" y1="338.71" x2="250.84" y2="338.71" style="stroke:#000000;stroke-width:5.76"/>
	<text x="200.73" y="338.71" style="font-family:'Helvetica';font-size:99.99px;fill:#000000" transform="rotate(-90 200.73,338.71)" text-anchor="middle">1</text>
	<line x1="290.81" y1="2093.67" x2="3859.02" y2="2093.67" style="stroke:#000000;stroke-width:5.76"/>
	<line x1="354.17" y1="2093.67" x2="354.17" y2="2133.64" style="stroke:#000000;stroke-width:5.76"/>
	<text x="354.17" y="2223.62" style="font-family:'Helvetica';font-size:99.99px;fill:#000000" text-anchor="middle">0</text>
	<line x1="1501.34" y1="2093.67" x2="1501.34" y2="2133.64" style="stroke:#000000;stroke-width:5.76"/>
	<text x="1501.34" y="2223.62" style="font-family:'Helvetica';font-size:99.99px;fill:#000000" text-anchor="middle">5</text>
	<line x1="2648.50" y1="2093.67" x2="2648.50" y2="2133.64" style="stroke:#000000;stroke-width:5.76"/>
	<text x="2648.50" y="2223.62" style="font-family:'Helvetica';font-size:99.99px;fill:#000000" text-anchor="middle">10</text>
	<line x1="3795.66" y1="2093.67" x2="3795.66" y2="2133.64" style="stroke:#000000;stroke-width:5.76"/>
	<text x="3795.66" y="2223.62" style="font-family:'Helvetica';font-size:99.99px;fill:#000000" text-anchor="middle">15</text>
	<text x="2074.92" y="2333.64" style="font-family:'Helvetica';font-size:99.99px;fill:#000000" text-anchor="middle">Analysis time</text>
	<rect x="836.18" y="2418.27" width="2477.60" height="326.34" style="fill:#FFFFFF"/>
	<rect x="839.06" y="2421.15" width="2471.84" height="320.58" style="fill:none;stroke:#000000;stroke-width:5.76"/>
	<rect x="879.37" y="2461.46" width="374.34" height="99.99" style="fill:#DDE3E9"/>
	<rect x="883.69" y="2465.78" width="365.70" height="91.35" style="fill:none;stroke:#DDE3E9;stroke-width:8.64"/>
	<rect x="2144.96" y="2461.46" width="374.34" height="99.99" style="fill:#EEE1E2"/>
	<rect x="2149.28" y="2465.78" width="365.70" height="91.35" style="fill:none;stroke:#EEE1E2;stroke-width:8.64"/>
	<line x1="879.37" y1="2651.43" x2="1253.71" y2="2651.43" style="stroke:#1A476F;stroke-width:8.64"/>
	<line x1="2144.96" y1="2651.43" x2="2519.30" y2="2651.43" style="stroke:#90353B;stroke-width:8.64"/>
	<text x="1313.73" y="2546.49" style="font-family:'Helvetica';font-size:99.99px;fill:#000000">95% CI</text>
	<text x="2579.32" y="2546.49" style="font-family:'Helvetica';font-size:99.99px;fill:#000000">95% CI</text>
	<text x="1313.73" y="2686.46" style="font-family:'Helvetica';font-size:99.99px;fill:#000000">turno_noite = 0</text>
	<text x="2579.32" y="2686.46" style="font-family:'Helvetica';font-size:99.99px;fill:#000000">turno_noite = 1</text>
	<text x="2074.92" y="215.98" style="font-family:'Helvetica';font-size:139.96px;fill:#1E2D53" text-anchor="middle">Kaplan–Meier survival estimates</text>
</svg>
