<?xml version="1.0" encoding="UTF-8" standalone="no"?>
<!-- This is a Stata 17.0 generated SVG file (http://www.stata.com) -->

<svg version="1.1" width="5.500in" height="4.000in" viewBox="0 0 3960 2880" xmlns="http://www.w3.org/2000/svg" xmlns:xlink="http://www.w3.org/1999/xlink">
	<desc>Stata Graph - Graph</desc>
	<rect x="0" y="0" width="3960" height="2880" style="fill:#EAF2F3;stroke:none"/>
	<rect x="0.00" y="0.00" width="3959.88" height="2880.00" style="fill:#EAF2F3"/>
	<rect x="2.88" y="2.88" width="3954.12" height="2874.24" style="fill:none;stroke:#EAF2F3;stroke-width:5.76"/>
	<rect x="290.81" y="275.35" width="3568.21" height="1818.32" style="fill:#FFFFFF"/>
	<rect x="293.69" y="278.23" width="3562.45" height="1812.56" style="fill:none;stroke:#FFFFFF;stroke-width:5.76"/>
	<line x1="290.81" y1="2030.31" x2="3859.02" y2="2030.31" style="stroke:#EAF2F3;stroke-width:8.64"/>
	<line x1="290.81" y1="1607.44" x2="3859.02" y2="1607.44" style="stroke:#EAF2F3;stroke-width:8.64"/>
	<line x1="290.81" y1="1184.57" x2="3859.02" y2="1184.57" style="stroke:#EAF2F3;stroke-width:8.64"/>
	<line x1="290.81" y1="761.58" x2="3859.02" y2="761.58" style="stroke:#EAF2F3;stroke-width:8.64"/>
	<line x1="290.81" y1="338.71" x2="3859.02" y2="338.71" style="stroke:#EAF2F3;stroke-width:8.64"/>
	<defs>
		<path id="path_uBiqiOad" d="M583.61 451.83 L583.61 451.83 L813.04 451.83 L813.04 665.18 L1042.47 665.18 L1042.47 739.18 L1271.90 739.18 L1271.90 876.67 L1501.34 876.67 L1501.34 930.63 L1730.77 930.63 L1730.77 1047.45 L1960.20 1047.45 L1960.20 1087.18 L2189.63 1087.18 L2189.63 1173.81 L2419.07 1173.81 L2419.07 1214.64 L2648.50 1214.64 L2648.50 1306.22 L2877.93 1306.22 L2877.93 1347.56 L3107.36 1347.56 L3107.36 1491.61 L3107.36 1424.90 L3107.36 1297.31 L2877.93 1297.31 L2877.93 1262.66 L2648.50 1262.66 L2648.50 1175.79 L2419.07 1175.79 L2419.07 1137.42 L2189.63 1137.42 L2189.63 1053.02 L1960.20 1053.02 L1960.20 1014.53 L1730.77 1014.53 L1730.77 900.43 L1501.34 900.43 L1501.34 847.96 L1271.90 847.96 L1271.90 713.81 L1042.47 713.81 L1042.47 642.28 L813.04 642.28 L813.04 437.72 L583.61 437.72 L583.61 451.83 Z" stroke-linejoin="round"/>
	</defs>
	<defs>
		<clipPath id="clipPath_lnQCmDgx">
			<use xlink:href="#path_uBiqiOad"/>
		</clipPath>
	</defs>
	<use xlink:href="#path_uBiqiOad" style="stroke:none;fill:#DDE3E9"/>
	<use xlink:href="#path_uBiqiOad" style="fill:none;stroke:#DDE3E9;stroke-width:17.28" clip-path="url(#clipPath_lnQCmDgx)"/>
	<path d=" M583.48 451.95 L812.91 451.95 L812.91 665.18 L1042.35 665.18 L1042.35 739.18 L1271.78 739.18 L1271.78 876.67 L1501.34 876.67 L1501.34 930.75 L1730.77 930.75 L1730.77 1047.45 L1960.20 1047.45 L1960.20 1087.18 L2189.63 1087.18 L2189.63 1173.93 L2419.07 1173.93 L2419.07 1214.77 L2648.50 1214.77 L2648.50 1306.35 L2877.93 1306.35 L2877.93 1347.68 L3107.36 1347.68 L3107.36 1491.61" stroke-linejoin="round" style="fill:none;stroke:#8DA3B7;stroke-width:8.64"/>
	<path d=" M583.48 437.84 L812.91 437.84 L812.91 642.41 L1042.35 642.41 L1042.35 713.94 L1271.78 713.94 L1271.78 847.96 L1501.34 847.96 L1501.34 900.43 L1730.77 900.43 L1730.77 1014.66 L1960.20 1014.66 L1960.20 1053.02 L2189.63 1053.02 L2189.63 1137.55 L2419.07 1137.55 L2419.07 1175.91 L2648.50 1175.91 L2648.50 1262.66 L2877.93 1262.66 L2877.93 1297.44 L3107.36 1297.44 L3107.36 1425.03" stroke-linejoin="round" style="fill:none;stroke:#8DA3B7;stroke-width:8.64"/>
	<defs>
		<path id="path_jWmVFKuM" d="M583.61 643.40 L583.61 643.40 L813.04 643.40 L813.04 955.50 L1042.47 955.50 L1042.47 1056.61 L1271.90 1056.61 L1271.90 1193.85 L1501.34 1193.85 L1501.34 1268.35 L1730.77 1268.35 L1730.77 1363.03 L1960.20 1363.03 L1960.20 1400.52 L2189.63 1400.52 L2189.63 1528.61 L2419.07 1528.61 L2419.07 1574.89 L2648.50 1574.89 L2648.50 1690.23 L3107.36 1690.23 L3107.36 1996.52 L3107.36 1655.21 L3107.36 1467.97 L2648.50 1467.97 L2648.50 1384.81 L2419.07 1384.81 L2419.07 1356.47 L2189.63 1356.47 L2189.63 1237.04 L1960.20 1237.04 L1960.20 1203.75 L1730.77 1203.75 L1730.77 1115.27 L1501.34 1115.27 L1501.34 1047.08 L1271.90 1047.08 L1271.90 920.11 L1042.47 920.11 L1042.47 829.77 L813.04 829.77 L813.04 549.84 L583.61 549.84 L583.61 643.40 Z" stroke-linejoin="round"/>
	</defs>
	<defs>
		<clipPath id="clipPath_SQjaWOuJ">
			<use xlink:href="#path_jWmVFKuM"/>
		</clipPath>
	</defs>
	<use xlink:href="#path_jWmVFKuM" style="stroke:none;fill:#EEE1E2"/>
	<use xlink:href="#path_jWmVFKuM" style="fill:none;stroke:#EEE1E2;stroke-width:17.28" clip-path="url(#clipPath_SQjaWOuJ)"/>
	<path d=" M583.48 643.40 L812.91 643.40 L812.91 955.50 L1042.35 955.50 L1042.35 1056.73 L1271.78 1056.73 L1271.78 1193.85 L1501.34 1193.85 L1501.34 1268.48 L1730.77 1268.48 L1730.77 1363.15 L1960.20 1363.15 L1960.20 1400.52 L2189.63 1400.52 L2189.63 1528.73 L2419.07 1528.73 L2419.07 1575.02 L2648.50 1575.02 L2648.50 1690.35 L3107.36 1690.35 L3107.36 1996.64" stroke-linejoin="round" style="fill:none;stroke:#C89A9D;stroke-width:8.64"/>
	<path d=" M583.48 549.96 L812.91 549.96 L812.91 829.77 L1042.35 829.77 L1042.35 920.11 L1271.78 920.11 L1271.78 1047.08 L1501.34 1047.08 L1501.34 1115.27 L1730.77 1115.27 L1730.77 1203.75 L1960.20 1203.75 L1960.20 1237.17 L2189.63 1237.17 L2189.63 1356.47 L2419.07 1356.47 L2419.07 1384.93 L2648.50 1384.93 L2648.50 1467.97 L3107.36 1467.97 L3107.36 1655.33" stroke-linejoin="round" style="fill:none;stroke:#C89A9D;stroke-width:8.64"/>
	<path d=" M354.05 338.84 L354.05 338.84 L354.05 338.84 L583.48 338.84 L583.48 444.65 L812.91 444.65 L812.91 653.54 L1042.35 653.54 L1042.35 726.44 L1271.78 726.44 L1271.78 862.19 L1501.34 862.19 L1501.34 915.53 L1730.77 915.53 L1730.77 1030.99 L1960.20 1030.99 L1960.20 1069.98 L2189.63 1069.98 L2189.63 1155.61 L2419.07 1155.61 L2419.07 1195.21 L2648.50 1195.21 L2648.50 1284.44 L2877.93 1284.44 L2877.93 1322.43 L3107.36 1322.43 L3107.36 1458.44" stroke-linejoin="round" style="fill:none;stroke:#1A476F;stroke-width:8.64"/>
	<path d=" M354.05 338.84 L354.05 338.84 L354.05 338.84 L583.48 338.84 L583.48 592.78 L812.91 592.78 L812.91 890.04 L1042.35 890.04 L1042.35 986.07 L1271.78 986.07 L1271.78 1118.61 L1501.34 1118.61 L1501.34 1190.39 L1730.77 1190.39 L1730.77 1282.46 L1960.20 1282.46 L1960.20 1318.10 L2189.63 1318.10 L2189.63 1442.97 L2419.07 1442.97 L2419.07 1480.84 L2648.50 1480.84 L2648.50 1582.56 L3107.36 1582.56 L3107.36 1881.18" stroke-linejoin="round" style="fill:none;stroke:#90353B;stroke-width:8.64"/>
	<line x1="290.81" y1="2093.67" x2="290.81" y2="275.35" style="stroke:#000000;stroke-width:5.76"/>
	<line x1="290.81" y1="2030.31" x2="250.84" y2="2030.31" style="stroke:#000000;stroke-width:5.76"/>
	<text x="200.73" y="2030.31" style="font-family:'Helvetica';font-size:99.99px;fill:#000000" transform="rotate(-90 200.73,2030.31)" text-anchor="middle">0</text>
	<line x1="290.81" y1="1607.44" x2="250.84" y2="1607.44" style="stroke:#000000;stroke-width:5.76"/>
	<text x="200.73" y="1607.44" style="font-family:'Helvetica';font-size:99.99px;fill:#000000" transform="rotate(-90 200.73,1607.44)" text-anchor="middle">.25</text>
	<line x1="290.81" y1="1184.57" x2="250.84" y2="1184.57" style="stroke:#000000;stroke-width:5.76"/>
	<text x="200.73" y="1184.57" style="font-family:'Helvetica';font-size:99.99px;fill:#000000" transform="rotate(-90 200.73,1184.57)" text-anchor="middle">.5</text>
	<line x1="290.81" y1="761.58" x2="250.84" y2="761.58" style="stroke:#000000;stroke-width:5.76"/>
	<text x="200.73" y="761.58" style="font-family:'Helvetica';font-size:99.99px;fill:#000000" transform="rotate(-90 200.73,761.58)" text-anchor="middle">.75</text>
	<line x1="290.81" y1="338.71" x2="250.84" y2="338.71" style="stroke:#000000;stroke-width:5.76"/>
	<text x="200.73" y="338.71" style="font-family:'Helvetica';font-size:99.99px;fill:#000000" transform="rotate(-90 200.73,338.71)" text-anchor="middle">1</text>
	<line x1="290.81" y1="2093.67" x2="3859.02" y2="2093.67" style="stroke:#000000;stroke-width:5.76"/>
	<line x1="354.17" y1="2093.67" x2="354.17" y2="2133.64" style="stroke:#000000;stroke-width:5.76"/>
	<text x="354.17" y="2223.62" style="font-family:'Helvetica';font-size:99.99px;fill:#000000" text-anchor="middle">0</text>
	<line x1="1501.34" y1="2093.67" x2="1501.34" y2="2133.64" style="stroke:#000000;stroke-width:5.76"/>
	<text x="1501.34" y="2223.62" style="font-family:'Helvetica';font-size:99.99px;fill:#000000" text-anchor="middle">5</text>
	<line x1="2648.50" y1="2093.67" x2="2648.50" y2="2133.64" style="stroke:#000000;stroke-width:5.76"/>
	<text x="2648.50" y="2223.62" style="font-family:'Helvetica';font-size:99.99px;fill:#000000" text-anchor="middle">10</text>
	<line x1="3795.66" y1="2093.67" x2="3795.66" y2="2133.64" style="stroke:#000000;stroke-width:5.76"/>
	<text x="3795.66" y="2223.62" style="font-family:'Helvetica';font-size:99.99px;fill:#000000" text-anchor="middle">15</text>
	<text x="2074.92" y="2333.64" style="font-family:'Helvetica';font-size:99.99px;fill:#000000" text-anchor="middle">Analysis time</text>
	<rect x="882.83" y="2418.27" width="2384.29" height="326.34" style="fill:#FFFFFF"/>
	<rect x="885.71" y="2421.15" width="2378.53" height="320.58" style="fill:none;stroke:#000000;stroke-width:5.76"/>
	<rect x="926.02" y="2461.46" width="374.34" height="99.99" style="fill:#DDE3E9"/>
	<rect x="930.34" y="2465.78" width="365.70" height="91.35" style="fill:none;stroke:#DDE3E9;stroke-width:8.64"/>
	<rect x="2144.96" y="2461.46" width="374.34" height="99.99" style="fill:#EEE1E2"/>
	<rect x="2149.28" y="2465.78" width="365.70" height="91.35" style="fill:none;stroke:#EEE1E2;stroke-width:8.64"/>
	<line x1="926.02" y1="2651.43" x2="1300.37" y2="2651.43" style="stroke:#1A476F;stroke-width:8.64"/>
	<line x1="2144.96" y1="2651.43" x2="2519.30" y2="2651.43" style="stroke:#90353B;stroke-width:8.64"/>
	<text x="1360.38" y="2546.49" style="font-family:'Helvetica';font-size:99.99px;fill:#000000">95% CI</text>
	<text x="2579.32" y="2546.49" style="font-family:'Helvetica';font-size:99.99px;fill:#000000">95% CI</text>
	<text x="1360.38" y="2686.46" style="font-family:'Helvetica';font-size:99.99px;fill:#000000">vagarema = 0</text>
	<text x="2579.32" y="2686.46" style="font-family:'Helvetica';font-size:99.99px;fill:#000000">vagarema = 1</text>
	<text x="2074.92" y="215.98" style="font-family:'Helvetica';font-size:139.96px;fill:#1E2D53" text-anchor="middle">Kaplan–Meier survival estimates</text>
</svg>
