<?xml version="1.0" encoding="UTF-8" standalone="no"?>
<!-- This is a Stata 17.0 generated SVG file (http://www.stata.com) -->

<svg version="1.1" width="5.500in" height="4.000in" viewBox="0 0 3960 2880" xmlns="http://www.w3.org/2000/svg" xmlns:xlink="http://www.w3.org/1999/xlink">
	<desc>Stata Graph - Graph</desc>
	<rect x="0" y="0" width="3960" height="2880" style="fill:#EAF2F3;stroke:none"/>
	<rect x="0.00" y="0.00" width="3959.88" height="2880.00" style="fill:#EAF2F3"/>
	<rect x="2.88" y="2.88" width="3954.12" height="2874.24" style="fill:none;stroke:#EAF2F3;stroke-width:5.76"/>
	<rect x="290.81" y="275.35" width="3568.21" height="1818.32" style="fill:#FFFFFF"/>
	<rect x="293.69" y="278.23" width="3562.45" height="1812.56" style="fill:none;stroke:#FFFFFF;stroke-width:5.76"/>
	<line x1="290.81" y1="1607.44" x2="3859.02" y2="1607.44" style="stroke:#EAF2F3;stroke-width:8.64"/>
	<line x1="290.81" y1="1184.57" x2="3859.02" y2="1184.57" style="stroke:#EAF2F3;stroke-width:8.64"/>
	<line x1="290.81" y1="761.58" x2="3859.02" y2="761.58" style="stroke:#EAF2F3;stroke-width:8.64"/>
	<line x1="290.81" y1="338.71" x2="3859.02" y2="338.71" style="stroke:#EAF2F3;stroke-width:8.64"/>
	<defs>
		<path id="path_jYgPdTQi" d="M583.61 485.73 L583.61 485.73 L813.04 485.73 L813.04 726.44 L1042.47 726.44 L1042.47 820.74 L1271.90 820.74 L1271.90 976.05 L1501.34 976.05 L1501.34 1043.74 L1730.77 1043.74 L1730.77 1177.77 L1960.20 1177.77 L1960.20 1224.17 L2189.63 1224.17 L2189.63 1319.83 L2419.07 1319.83 L2419.07 1365.13 L2648.50 1365.13 L2648.50 1455.59 L2877.93 1455.59 L2877.93 1494.45 L3107.36 1494.45 L3107.36 1621.92 L3107.36 1559.05 L3107.36 1443.34 L2877.93 1443.34 L2877.93 1409.43 L2648.50 1409.43 L2648.50 1322.31 L2419.07 1322.31 L2419.07 1279.00 L2189.63 1279.00 L2189.63 1184.82 L1960.20 1184.82 L1960.20 1139.53 L1730.77 1139.53 L1730.77 1007.60 L1501.34 1007.60 L1501.34 941.40 L1271.90 941.40 L1271.90 789.55 L1042.47 789.55 L1042.47 698.34 L813.04 698.34 L813.04 467.42 L583.61 467.42 L583.61 485.73 Z" stroke-linejoin="round"/>
	</defs>
	<defs>
		<clipPath id="clipPath_qOdXSdJZ">
			<use xlink:href="#path_jYgPdTQi"/>
		</clipPath>
	</defs>
	<use xlink:href="#path_jYgPdTQi" style="stroke:none;fill:#DDE3E9"/>
	<use xlink:href="#path_jYgPdTQi" style="fill:none;stroke:#DDE3E9;stroke-width:17.28" clip-path="url(#clipPath_qOdXSdJZ)"/>
	<path d=" M583.48 485.86 L812.91 485.86 L812.91 726.44 L1042.35 726.44 L1042.35 820.74 L1271.78 820.74 L1271.78 976.17 L1501.34 976.17 L1501.34 1043.86 L1730.77 1043.86 L1730.77 1177.89 L1960.20 1177.89 L1960.20 1224.17 L2189.63 1224.17 L2189.63 1319.83 L2419.07 1319.83 L2419.07 1365.25 L2648.50 1365.25 L2648.50 1455.59 L2877.93 1455.59 L2877.93 1494.45 L3107.36 1494.45 L3107.36 1622.04" stroke-linejoin="round" style="fill:none;stroke:#8DA3B7;stroke-width:8.64"/>
	<path d=" M583.48 467.54 L812.91 467.54 L812.91 698.34 L1042.35 698.34 L1042.35 789.67 L1271.78 789.67 L1271.78 941.52 L1501.34 941.52 L1501.34 1007.60 L1730.77 1007.60 L1730.77 1139.53 L1960.20 1139.53 L1960.20 1184.94 L2189.63 1184.94 L2189.63 1279.00 L2419.07 1279.00 L2419.07 1322.31 L2648.50 1322.31 L2648.50 1409.43 L2877.93 1409.43 L2877.93 1443.34 L3107.36 1443.34 L3107.36 1559.17" stroke-linejoin="round" style="fill:none;stroke:#8DA3B7;stroke-width:8.64"/>
	<defs>
		<path id="path_ZloSTaJk" d="M583.61 399.35 L583.61 399.35 L813.04 399.35 L813.04 563.95 L1042.47 563.95 L1042.47 588.70 L1271.90 588.70 L1271.90 680.52 L1501.34 680.52 L1501.34 692.53 L1730.77 692.53 L1730.77 746.85 L1960.20 746.85 L1960.20 756.38 L2189.63 756.38 L2189.63 805.51 L2419.07 805.51 L2419.07 808.86 L2648.50 808.86 L2648.50 876.92 L2877.93 876.92 L2877.93 876.92 L3107.36 876.92 L3107.36 1075.17 L3107.36 894.86 L3107.36 799.33 L2877.93 799.33 L2877.93 799.33 L2648.50 799.33 L2648.50 749.33 L2419.07 749.33 L2419.07 746.98 L2189.63 746.98 L2189.63 704.41 L1960.20 704.41 L1960.20 696.24 L1730.77 696.24 L1730.77 647.11 L1501.34 647.11 L1501.34 636.22 L1271.90 636.22 L1271.90 551.45 L1042.47 551.45 L1042.47 528.92 L813.04 528.92 L813.04 381.16 L583.61 381.16 L583.61 399.35 Z" stroke-linejoin="round"/>
	</defs>
	<defs>
		<clipPath id="clipPath_ffOVzveD">
			<use xlink:href="#path_ZloSTaJk"/>
		</clipPath>
	</defs>
	<use xlink:href="#path_ZloSTaJk" style="stroke:none;fill:#EEE1E2"/>
	<use xlink:href="#path_ZloSTaJk" style="fill:none;stroke:#EEE1E2;stroke-width:17.28" clip-path="url(#clipPath_ffOVzveD)"/>
	<path d=" M583.48 399.35 L812.91 399.35 L812.91 564.07 L1042.35 564.07 L1042.35 588.70 L1271.78 588.70 L1271.78 680.52 L1501.34 680.52 L1501.34 692.65 L1730.77 692.65 L1730.77 746.85 L1960.20 746.85 L1960.20 756.38 L2189.63 756.38 L2189.63 805.51 L2419.07 805.51 L2419.07 808.86 L2648.50 808.86 L2648.50 876.92 L2877.93 876.92 L2877.93 876.92 L3107.36 876.92 L3107.36 1075.17" stroke-linejoin="round" style="fill:none;stroke:#C89A9D;stroke-width:8.64"/>
	<path d=" M583.48 381.16 L812.91 381.16 L812.91 529.05 L1042.35 529.05 L1042.35 551.45 L1271.78 551.45 L1271.78 636.34 L1501.34 636.34 L1501.34 647.11 L1730.77 647.11 L1730.77 696.24 L1960.20 696.24 L1960.20 704.53 L2189.63 704.53 L2189.63 746.98 L2419.07 746.98 L2419.07 749.45 L2648.50 749.45 L2648.50 799.45 L2877.93 799.45 L2877.93 799.45 L3107.36 799.45 L3107.36 894.86" stroke-linejoin="round" style="fill:none;stroke:#C89A9D;stroke-width:8.64"/>
	<path d=" M354.05 338.84 L354.05 338.84 L354.05 338.84 L583.48 338.84 L583.48 476.45 L812.91 476.45 L812.91 712.20 L1042.35 712.20 L1042.35 805.02 L1271.78 805.02 L1271.78 958.60 L1501.34 958.60 L1501.34 1025.55 L1730.77 1025.55 L1730.77 1158.58 L1960.20 1158.58 L1960.20 1204.50 L2189.63 1204.50 L2189.63 1299.42 L2419.07 1299.42 L2419.07 1343.72 L2648.50 1343.72 L2648.50 1432.57 L2877.93 1432.57 L2877.93 1468.96 L3107.36 1468.96 L3107.36 1590.86" stroke-linejoin="round" style="fill:none;stroke:#1A476F;stroke-width:8.64"/>
	<path d=" M354.05 338.84 L354.05 338.84 L354.05 338.84 L583.48 338.84 L583.48 389.45 L812.91 389.45 L812.91 545.88 L1042.35 545.88 L1042.35 569.39 L1271.78 569.39 L1271.78 657.75 L1501.34 657.75 L1501.34 669.14 L1730.77 669.14 L1730.77 720.87 L1960.20 720.87 L1960.20 729.78 L2189.63 729.78 L2189.63 775.44 L2419.07 775.44 L2419.07 778.29 L2648.50 778.29 L2648.50 837.07 L2877.93 837.07 L2877.93 837.07 L3107.36 837.07 L3107.36 980.75" stroke-linejoin="round" style="fill:none;stroke:#90353B;stroke-width:8.64"/>
	<line x1="290.81" y1="2093.67" x2="290.81" y2="275.35" style="stroke:#000000;stroke-width:5.76"/>
	<line x1="290.81" y1="2030.31" x2="250.84" y2="2030.31" style="stroke:#000000;stroke-width:5.76"/>
	<text x="200.73" y="2030.31" style="font-family:'Helvetica';font-size:99.99px;fill:#000000" transform="rotate(-90 200.73,2030.31)" text-anchor="middle">0</text>
	<line x1="290.81" y1="1607.44" x2="250.84" y2="1607.44" style="stroke:#000000;stroke-width:5.76"/>
	<text x="200.73" y="1607.44" style="font-family:'Helvetica';font-size:99.99px;fill:#000000" transform="rotate(-90 200.73,1607.44)" text-anchor="middle">.25</text>
	<line x1="290.81" y1="1184.57" x2="250.84" y2="1184.57" style="stroke:#000000;stroke-width:5.76"/>
	<text x="200.73" y="1184.57" style="font-family:'Helvetica';font-size:99.99px;fill:#000000" transform="rotate(-90 200.73,1184.57)" text-anchor="middle">.5</text>
	<line x1="290.81" y1="761.58" x2="250.84" y2="761.58" style="stroke:#000000;stroke-width:5.76"/>
	<text x="200.73" y="761.58" style="font-family:'Helvetica';font-size:99.99px;fill:#000000" transform="rotate(-90 200.73,761.58)" text-anchor="middle">.75</text>
	<line x1="290.81" y1="338.71" x2="250.84" y2="338.71" style="stroke:#000000;stroke-width:5.76"/>
	<text x="200.73" y="338.71" style="font-family:'Helvetica';font-size:99.99px;fill:#000000" transform="rotate(-90 200.73,338.71)" text-anchor="middle">1</text>
	<line x1="290.81" y1="2093.67" x2="3859.02" y2="2093.67" style="stroke:#000000;stroke-width:5.76"/>
	<line x1="354.17" y1="2093.67" x2="354.17" y2="2133.64" style="stroke:#000000;stroke-width:5.76"/>
	<text x="354.17" y="2223.62" style="font-family:'Helvetica';font-size:99.99px;fill:#000000" text-anchor="middle">0</text>
	<line x1="1501.34" y1="2093.67" x2="1501.34" y2="2133.64" style="stroke:#000000;stroke-width:5.76"/>
	<text x="1501.34" y="2223.62" style="font-family:'Helvetica';font-size:99.99px;fill:#000000" text-anchor="middle">5</text>
	<line x1="2648.50" y1="2093.67" x2="2648.50" y2="2133.64" style="stroke:#000000;stroke-width:5.76"/>
	<text x="2648.50" y="2223.62" style="font-family:'Helvetica';font-size:99.99px;fill:#000000" text-anchor="middle">10</text>
	<line x1="3795.66" y1="2093.67" x2="3795.66" y2="2133.64" style="stroke:#000000;stroke-width:5.76"/>
	<text x="3795.66" y="2223.62" style="font-family:'Helvetica';font-size:99.99px;fill:#000000" text-anchor="middle">15</text>
	<text x="2074.92" y="2333.64" style="font-family:'Helvetica';font-size:99.99px;fill:#000000" text-anchor="middle">Analysis time</text>
	<rect x="1069.45" y="2418.27" width="2010.94" height="326.34" style="fill:#FFFFFF"/>
	<rect x="1072.33" y="2421.15" width="2005.18" height="320.58" style="fill:none;stroke:#000000;stroke-width:5.76"/>
	<rect x="1112.64" y="2461.46" width="374.34" height="99.99" style="fill:#DDE3E9"/>
	<rect x="1116.96" y="2465.78" width="365.70" height="91.35" style="fill:none;stroke:#DDE3E9;stroke-width:8.64"/>
	<rect x="2144.96" y="2461.46" width="374.34" height="99.99" style="fill:#EEE1E2"/>
	<rect x="2149.28" y="2465.78" width="365.70" height="91.35" style="fill:none;stroke:#EEE1E2;stroke-width:8.64"/>
	<line x1="1112.64" y1="2651.43" x2="1486.98" y2="2651.43" style="stroke:#1A476F;stroke-width:8.64"/>
	<line x1="2144.96" y1="2651.43" x2="2519.30" y2="2651.43" style="stroke:#90353B;stroke-width:8.64"/>
	<text x="1547.00" y="2546.49" style="font-family:'Helvetica';font-size:99.99px;fill:#000000">95% CI</text>
	<text x="2579.32" y="2546.49" style="font-family:'Helvetica';font-size:99.99px;fill:#000000">95% CI</text>
	<text x="1547.00" y="2686.46" style="font-family:'Helvetica';font-size:99.99px;fill:#000000">auxilio = 0</text>
	<text x="2579.32" y="2686.46" style="font-family:'Helvetica';font-size:99.99px;fill:#000000">auxilio = 1</text>
	<text x="2074.92" y="215.98" style="font-family:'Helvetica';font-size:139.96px;fill:#1E2D53" text-anchor="middle">Kaplan–Meier survival estimates</text>
</svg>
