<?xml version="1.0" encoding="UTF-8" standalone="no"?>
<!-- This is a Stata 17.0 generated SVG file (http://www.stata.com) -->

<svg version="1.1" width="5.500in" height="4.000in" viewBox="0 0 3960 2880" xmlns="http://www.w3.org/2000/svg" xmlns:xlink="http://www.w3.org/1999/xlink">
	<desc>Stata Graph - Graph</desc>
	<rect x="0" y="0" width="3960" height="2880" style="fill:#EAF2F3;stroke:none"/>
	<rect x="0.00" y="0.00" width="3959.88" height="2880.00" style="fill:#EAF2F3"/>
	<rect x="2.88" y="2.88" width="3954.12" height="2874.24" style="fill:none;stroke:#EAF2F3;stroke-width:5.76"/>
	<rect x="290.81" y="275.35" width="3568.21" height="1958.28" style="fill:#FFFFFF"/>
	<rect x="293.69" y="278.23" width="3562.45" height="1952.52" style="fill:none;stroke:#FFFFFF;stroke-width:5.76"/>
	<line x1="290.81" y1="2032.04" x2="3859.02" y2="2032.04" style="stroke:#EAF2F3;stroke-width:8.64"/>
	<line x1="290.81" y1="1608.68" x2="3859.02" y2="1608.68" style="stroke:#EAF2F3;stroke-width:8.64"/>
	<line x1="290.81" y1="1185.44" x2="3859.02" y2="1185.44" style="stroke:#EAF2F3;stroke-width:8.64"/>
	<line x1="290.81" y1="762.08" x2="3859.02" y2="762.08" style="stroke:#EAF2F3;stroke-width:8.64"/>
	<line x1="290.81" y1="338.71" x2="3859.02" y2="338.71" style="stroke:#EAF2F3;stroke-width:8.64"/>
	<defs>
		<path id="path_xEGMkMfD" d="M1037.89 1904.08 L1037.89 1904.08 L1063.14 1844.68 L1088.38 1795.05 L1113.63 1755.20 L1138.87 1725.01 L1164.12 1704.46 L1189.24 1661.52 L1214.48 1596.67 L1239.73 1543.33 L1264.97 1501.51 L1290.22 1471.19 L1315.46 1452.25 L1340.71 1444.95 L1365.95 1448.91 L1391.20 1464.38 L1416.44 1478.12 L1441.69 1484.43 L1466.93 1503.36 L1492.18 1534.55 L1517.42 1577.99 L1542.67 1633.80 L1567.91 1701.99 L1593.16 1782.43 L1618.40 1833.04 L1643.65 1864.35 L1668.77 1855.19 L1694.01 1859.65 L1719.26 1877.35 L1744.50 1908.28 L1769.75 1952.59 L1794.99 2010.01 L1820.24 2080.55 L1845.48 2088.22 L1870.73 2077.33 L1895.97 2049.98 L1921.22 2034.51 L1946.46 2031.05 L1971.71 2039.34 L1996.95 2059.39 L2022.20 2091.07 L2047.44 2134.26 L2072.69 2162.23 L2097.93 2170.27 L2123.05 2068.92 L2148.30 1983.65 L2173.55 1914.10 L2198.79 1860.14 L2224.04 1821.16 L2249.28 1796.91 L2274.53 1787.38 L2299.77 1746.91 L2325.02 1688.62 L2350.26 1642.46 L2375.51 1608.31 L2400.75 1586.15 L2426.00 1575.76 L2451.24 1577.24 L2476.49 1590.36 L2501.73 1615.24 L2526.98 1634.79 L2552.22 1648.77 L2577.34 1673.40 L2602.59 1708.92 L2627.83 1754.95 L2653.08 1811.88 L2653.08 551.45 L2627.83 515.68 L2602.59 492.17 L2577.34 480.54 L2552.22 481.03 L2526.98 493.41 L2501.73 501.57 L2476.49 505.41 L2451.24 521.99 L2426.00 551.20 L2400.75 593.03 L2375.51 647.36 L2350.26 714.18 L2325.02 793.39 L2299.77 884.72 L2274.53 958.23 L2249.28 1000.18 L2224.04 1055.62 L2198.79 1124.18 L2173.55 1205.73 L2148.30 1299.91 L2123.05 1406.09 L2097.93 1524.15 L2072.69 1529.47 L2047.44 1514.99 L2022.20 1485.05 L1996.95 1466.61 L1971.71 1459.43 L1946.46 1463.64 L1921.22 1478.86 L1895.97 1505.09 L1870.73 1542.34 L1845.48 1562.15 L1820.24 1563.51 L1794.99 1501.63 L1769.75 1452.75 L1744.50 1416.61 L1719.26 1393.22 L1694.01 1382.58 L1668.77 1384.56 L1643.65 1399.04 L1618.40 1372.31 L1593.16 1326.52 L1567.91 1250.90 L1542.67 1187.54 L1517.42 1136.43 L1492.18 1097.57 L1466.93 1070.97 L1441.69 1056.49 L1416.44 1054.14 L1391.20 1044.24 L1365.95 1032.73 L1340.71 1032.73 L1315.46 1044.24 L1290.22 1067.13 L1264.97 1101.53 L1239.73 1147.32 L1214.48 1204.62 L1189.24 1273.18 L1164.12 1319.59 L1138.87 1343.84 L1113.63 1378.00 L1088.38 1422.06 L1063.14 1476.01 L1037.89 1539.99 L1037.89 1904.08 Z" stroke-linejoin="round"/>
	</defs>
	<defs>
		<clipPath id="clipPath_oRcRiqio">
			<use xlink:href="#path_xEGMkMfD"/>
		</clipPath>
	</defs>
	<use xlink:href="#path_xEGMkMfD" style="stroke:none;fill:#DDE3E9"/>
	<use xlink:href="#path_xEGMkMfD" style="fill:none;stroke:#DDE3E9;stroke-width:17.28" clip-path="url(#clipPath_oRcRiqio)"/>
	<path d=" M1037.77 1904.08 L1063.01 1844.68 L1088.26 1795.05 L1113.50 1755.20 L1138.75 1725.01 L1163.99 1704.59 L1189.24 1661.52 L1214.48 1596.67 L1239.73 1543.33 L1264.97 1501.51 L1290.22 1471.19 L1315.46 1452.38 L1340.71 1444.95 L1365.95 1449.03 L1391.20 1464.38 L1416.44 1478.12 L1441.56 1484.55 L1466.81 1503.36 L1492.05 1534.55 L1517.30 1578.11 L1542.54 1633.92 L1567.79 1701.99 L1593.03 1782.43 L1618.28 1833.04 L1643.52 1864.35 L1668.77 1855.32 L1694.01 1859.65 L1719.26 1877.35 L1744.50 1908.41 L1769.75 1952.59 L1794.99 2010.01 L1820.24 2080.67 L1845.48 2088.35 L1870.73 2077.46 L1895.85 2049.98 L1921.10 2034.64 L1946.34 2031.05 L1971.59 2039.34 L1996.83 2059.39 L2022.08 2091.07 L2047.32 2134.38 L2072.57 2162.35 L2097.81 2170.40 L2123.05 2068.92 L2148.30 1983.65 L2173.55 1914.22 L2198.79 1860.14 L2224.04 1821.16 L2249.28 1797.03 L2274.53 1787.38 L2299.77 1746.91 L2325.02 1688.62 L2350.14 1642.59 L2375.38 1608.43 L2400.63 1586.28 L2425.87 1575.88 L2451.12 1577.37 L2476.36 1590.48 L2501.61 1615.36 L2526.85 1634.79 L2552.10 1648.77 L2577.34 1673.52 L2602.59 1708.92 L2627.83 1755.08 L2653.08 1811.88" stroke-linejoin="round" style="fill:none;stroke:#8DA3B7;stroke-width:8.64"/>
	<path d=" M1037.77 1539.99 L1063.01 1476.14 L1088.26 1422.06 L1113.50 1378.00 L1138.75 1343.84 L1163.99 1319.71 L1189.24 1273.18 L1214.48 1204.62 L1239.73 1147.45 L1264.97 1101.66 L1290.22 1067.25 L1315.46 1044.24 L1340.71 1032.73 L1365.95 1032.73 L1391.20 1044.24 L1416.44 1054.14 L1441.56 1056.49 L1466.81 1070.97 L1492.05 1097.70 L1517.30 1136.56 L1542.54 1187.67 L1567.79 1250.90 L1593.03 1326.52 L1618.28 1372.43 L1643.52 1399.04 L1668.77 1384.56 L1694.01 1382.58 L1719.26 1393.34 L1744.50 1416.73 L1769.75 1452.87 L1794.99 1501.75 L1820.24 1563.51 L1845.48 1562.27 L1870.73 1542.34 L1895.85 1505.09 L1921.10 1478.86 L1946.34 1463.64 L1971.59 1459.55 L1996.83 1466.73 L2022.08 1485.17 L2047.32 1514.99 L2072.57 1529.60 L2097.81 1524.15 L2123.05 1406.22 L2148.30 1299.91 L2173.55 1205.86 L2198.79 1124.30 L2224.04 1055.62 L2249.28 1000.18 L2274.53 958.23 L2299.77 884.84 L2325.02 793.39 L2350.14 714.31 L2375.38 647.48 L2400.63 593.15 L2425.87 551.32 L2451.12 521.99 L2476.36 505.53 L2501.61 501.57 L2526.85 493.53 L2552.10 481.03 L2577.34 480.66 L2602.59 492.17 L2627.83 515.81 L2653.08 551.45" stroke-linejoin="round" style="fill:none;stroke:#8DA3B7;stroke-width:8.64"/>
	<path d=" M1037.77 1724.76 L1063.01 1663.13 L1088.26 1611.40 L1113.50 1569.45 L1138.75 1537.27 L1163.99 1514.99 L1189.24 1470.32 L1214.48 1403.62 L1239.73 1348.30 L1264.97 1304.61 L1290.22 1272.31 L1315.46 1251.40 L1340.71 1241.99 L1365.95 1244.10 L1391.20 1257.59 L1416.44 1269.47 L1441.56 1273.92 L1466.81 1290.75 L1492.05 1319.71 L1517.30 1361.05 L1542.54 1414.51 L1567.79 1480.47 L1593.03 1558.56 L1618.28 1606.94 L1643.52 1636.03 L1668.77 1624.27 L1694.01 1625.63 L1719.26 1639.99 L1744.50 1667.34 L1769.75 1707.68 L1794.99 1761.14 L1820.24 1827.47 L1845.48 1830.94 L1870.73 1815.72 L1895.85 1783.54 L1921.10 1763.00 L1946.34 1753.84 L1971.59 1756.19 L1996.83 1770.18 L2022.08 1795.54 L2047.32 1832.55 L2072.57 1854.08 L2097.81 1855.81 L2123.05 1746.41 L2148.30 1651.12 L2173.55 1569.82 L2198.79 1502.74 L2224.04 1449.65 L2249.28 1410.67 L2274.53 1385.92 L2299.77 1329.86 L2325.02 1255.98 L2350.14 1194.35 L2375.38 1144.85 L2400.63 1107.60 L2425.87 1082.60 L2451.12 1069.85 L2476.36 1069.36 L2501.61 1080.99 L2526.85 1087.80 L2552.10 1089.65 L2577.34 1102.89 L2602.59 1127.65 L2627.83 1163.66 L2653.08 1211.06" stroke-linejoin="round" style="fill:none;stroke:#1A476F;stroke-width:8.64"/>
	<line x1="290.81" y1="2233.63" x2="290.81" y2="275.35" style="stroke:#000000;stroke-width:5.76"/>
	<line x1="290.81" y1="2032.04" x2="250.84" y2="2032.04" style="stroke:#000000;stroke-width:5.76"/>
	<text x="200.73" y="2032.04" style="font-family:'Helvetica';font-size:99.99px;fill:#000000" transform="rotate(-90 200.73,2032.04)" text-anchor="middle">.07</text>
	<line x1="290.81" y1="1608.68" x2="250.84" y2="1608.68" style="stroke:#000000;stroke-width:5.76"/>
	<text x="200.73" y="1608.68" style="font-family:'Helvetica';font-size:99.99px;fill:#000000" transform="rotate(-90 200.73,1608.68)" text-anchor="middle">.075</text>
	<line x1="290.81" y1="1185.44" x2="250.84" y2="1185.44" style="stroke:#000000;stroke-width:5.76"/>
	<text x="200.73" y="1185.44" style="font-family:'Helvetica';font-size:99.99px;fill:#000000" transform="rotate(-90 200.73,1185.44)" text-anchor="middle">.08</text>
	<line x1="290.81" y1="762.08" x2="250.84" y2="762.08" style="stroke:#000000;stroke-width:5.76"/>
	<text x="200.73" y="762.08" style="font-family:'Helvetica';font-size:99.99px;fill:#000000" transform="rotate(-90 200.73,762.08)" text-anchor="middle">.085</text>
	<line x1="290.81" y1="338.71" x2="250.84" y2="338.71" style="stroke:#000000;stroke-width:5.76"/>
	<text x="200.73" y="338.71" style="font-family:'Helvetica';font-size:99.99px;fill:#000000" transform="rotate(-90 200.73,338.71)" text-anchor="middle">.09</text>
	<line x1="290.81" y1="2233.63" x2="3859.02" y2="2233.63" style="stroke:#000000;stroke-width:5.76"/>
	<line x1="354.17" y1="2233.63" x2="354.17" y2="2273.73" style="stroke:#000000;stroke-width:5.76"/>
	<text x="354.17" y="2363.59" style="font-family:'Helvetica';font-size:99.99px;fill:#000000" text-anchor="middle">0</text>
	<line x1="1501.34" y1="2233.63" x2="1501.34" y2="2273.73" style="stroke:#000000;stroke-width:5.76"/>
	<text x="1501.34" y="2363.59" style="font-family:'Helvetica';font-size:99.99px;fill:#000000" text-anchor="middle">5</text>
	<line x1="2648.50" y1="2233.63" x2="2648.50" y2="2273.73" style="stroke:#000000;stroke-width:5.76"/>
	<text x="2648.50" y="2363.59" style="font-family:'Helvetica';font-size:99.99px;fill:#000000" text-anchor="middle">10</text>
	<line x1="3795.66" y1="2233.63" x2="3795.66" y2="2273.73" style="stroke:#000000;stroke-width:5.76"/>
	<text x="3795.66" y="2363.59" style="font-family:'Helvetica';font-size:99.99px;fill:#000000" text-anchor="middle">15</text>
	<text x="2074.92" y="2473.60" style="font-family:'Helvetica';font-size:99.99px;fill:#000000" text-anchor="middle">Analysis time</text>
	<rect x="753.02" y="2558.24" width="2643.80" height="186.37" style="fill:#FFFFFF"/>
	<rect x="755.90" y="2561.12" width="2638.04" height="180.61" style="fill:none;stroke:#000000;stroke-width:5.76"/>
	<rect x="796.21" y="2601.43" width="374.34" height="99.99" style="fill:#DDE3E9"/>
	<rect x="800.53" y="2605.75" width="365.70" height="91.35" style="fill:none;stroke:#DDE3E9;stroke-width:8.64"/>
	<line x1="1711.83" y1="2651.43" x2="2086.18" y2="2651.43" style="stroke:#1A476F;stroke-width:8.64"/>
	<text x="1230.57" y="2686.46" style="font-family:'Helvetica';font-size:99.99px;fill:#000000">95% CI</text>
	<text x="2146.20" y="2686.46" style="font-family:'Helvetica';font-size:99.99px;fill:#000000">Smoothed hazard function</text>
	<text x="2074.92" y="215.98" style="font-family:'Helvetica';font-size:139.96px;fill:#1E2D53" text-anchor="middle">Smoothed hazard estimate</text>
</svg>
