<?xml version="1.0" encoding="UTF-8" standalone="no"?>
<!-- This is a Stata 17.0 generated SVG file (http://www.stata.com) -->

<svg version="1.1" width="5.500in" height="4.000in" viewBox="0 0 3960 2880" xmlns="http://www.w3.org/2000/svg" xmlns:xlink="http://www.w3.org/1999/xlink">
	<desc>Stata Graph - Graph</desc>
	<rect x="0" y="0" width="3960" height="2880" style="fill:#EAF2F3;stroke:none"/>
	<rect x="0.00" y="0.00" width="3959.88" height="2880.00" style="fill:#EAF2F3"/>
	<rect x="2.88" y="2.88" width="3954.12" height="2874.24" style="fill:none;stroke:#EAF2F3;stroke-width:5.76"/>
	<rect x="290.81" y="275.35" width="3568.21" height="1958.28" style="fill:#FFFFFF"/>
	<rect x="293.69" y="278.23" width="3562.45" height="1952.52" style="fill:none;stroke:#FFFFFF;stroke-width:5.76"/>
	<line x1="290.81" y1="2170.27" x2="3859.02" y2="2170.27" style="stroke:#EAF2F3;stroke-width:8.64"/>
	<line x1="290.81" y1="1337.66" x2="3859.02" y2="1337.66" style="stroke:#EAF2F3;stroke-width:8.64"/>
	<line x1="290.81" y1="504.92" x2="3859.02" y2="504.92" style="stroke:#EAF2F3;stroke-width:8.64"/>
	<defs>
		<path id="path_nDAqfBZZ" d="M583.61 2066.19 L583.61 2066.19 L813.04 2066.19 L813.04 1847.40 L1042.47 1847.40 L1042.47 1760.03 L1271.90 1760.03 L1271.90 1589.25 L1501.34 1589.25 L1501.34 1513.76 L1730.77 1513.76 L1730.77 1345.33 L1960.20 1345.33 L1960.20 1281.97 L2189.63 1281.97 L2189.63 1134.20 L2419.07 1134.20 L2419.07 1062.06 L2648.50 1062.06 L2648.50 890.90 L2877.93 890.90 L2877.93 816.90 L3107.36 816.90 L3107.36 518.40 L3107.36 338.71 L3107.36 704.16 L2877.93 704.16 L2877.93 798.58 L2648.50 798.58 L2648.50 988.17 L2419.07 988.17 L2419.07 1068.49 L2189.63 1068.49 L2189.63 1225.91 L1960.20 1225.91 L1960.20 1293.72 L1730.77 1293.72 L1730.77 1470.94 L1501.34 1470.94 L1501.34 1550.76 L1271.90 1550.76 L1271.90 1729.46 L1042.47 1729.46 L1042.47 1821.53 L813.04 1821.53 L813.04 2051.84 L583.61 2051.84 L583.61 2066.19 Z" stroke-linejoin="round"/>
	</defs>
	<defs>
		<clipPath id="clipPath_WHvTNNyr">
			<use xlink:href="#path_nDAqfBZZ"/>
		</clipPath>
	</defs>
	<use xlink:href="#path_nDAqfBZZ" style="stroke:none;fill:#DDE3E9"/>
	<use xlink:href="#path_nDAqfBZZ" style="fill:none;stroke:#DDE3E9;stroke-width:17.28" clip-path="url(#clipPath_WHvTNNyr)"/>
	<path d=" M583.48 2066.32 L812.91 2066.32 L812.91 1847.52 L1042.35 1847.52 L1042.35 1760.03 L1271.78 1760.03 L1271.78 1589.37 L1501.34 1589.37 L1501.34 1513.88 L1730.77 1513.88 L1730.77 1345.45 L1960.20 1345.45 L1960.20 1282.09 L2189.63 1282.09 L2189.63 1134.20 L2419.07 1134.20 L2419.07 1062.18 L2648.50 1062.18 L2648.50 891.03 L2877.93 891.03 L2877.93 816.90 L3107.36 816.90 L3107.36 518.40" stroke-linejoin="round" style="fill:none;stroke:#8DA3B7;stroke-width:8.64"/>
	<path d=" M583.48 2051.84 L812.91 2051.84 L812.91 1821.66 L1042.35 1821.66 L1042.35 1729.46 L1271.78 1729.46 L1271.78 1550.76 L1501.34 1550.76 L1501.34 1471.06 L1730.77 1471.06 L1730.77 1293.72 L1960.20 1293.72 L1960.20 1226.03 L2189.63 1226.03 L2189.63 1068.49 L2419.07 1068.49 L2419.07 988.30 L2648.50 988.30 L2648.50 798.58 L2877.93 798.58 L2877.93 704.16 L3107.36 704.16 L3107.36 338.84" stroke-linejoin="round" style="fill:none;stroke:#8DA3B7;stroke-width:8.64"/>
	<path d=" M583.48 2059.26 L812.91 2059.26 L812.91 1834.77 L1042.35 1834.77 L1042.35 1745.05 L1271.78 1745.05 L1271.78 1570.44 L1501.34 1570.44 L1501.34 1492.72 L1730.77 1492.72 L1730.77 1319.96 L1960.20 1319.96 L1960.20 1254.49 L2189.63 1254.49 L2189.63 1101.90 L2419.07 1101.90 L2419.07 1025.80 L2648.50 1025.80 L2648.50 845.61 L2877.93 845.61 L2877.93 761.71 L3107.36 761.71 L3107.36 430.91" stroke-linejoin="round" style="fill:none;stroke:#1A476F;stroke-width:8.64"/>
	<line x1="290.81" y1="2233.63" x2="290.81" y2="275.35" style="stroke:#000000;stroke-width:5.76"/>
	<line x1="290.81" y1="2170.27" x2="250.84" y2="2170.27" style="stroke:#000000;stroke-width:5.76"/>
	<text x="200.73" y="2170.27" style="font-family:'Helvetica';font-size:99.99px;fill:#000000" transform="rotate(-90 200.73,2170.27)" text-anchor="middle">0</text>
	<line x1="290.81" y1="1337.66" x2="250.84" y2="1337.66" style="stroke:#000000;stroke-width:5.76"/>
	<text x="200.73" y="1337.66" style="font-family:'Helvetica';font-size:99.99px;fill:#000000" transform="rotate(-90 200.73,1337.66)" text-anchor="middle">.5</text>
	<line x1="290.81" y1="504.92" x2="250.84" y2="504.92" style="stroke:#000000;stroke-width:5.76"/>
	<text x="200.73" y="504.92" style="font-family:'Helvetica';font-size:99.99px;fill:#000000" transform="rotate(-90 200.73,504.92)" text-anchor="middle">1</text>
	<line x1="290.81" y1="2233.63" x2="3859.02" y2="2233.63" style="stroke:#000000;stroke-width:5.76"/>
	<line x1="354.17" y1="2233.63" x2="354.17" y2="2273.73" style="stroke:#000000;stroke-width:5.76"/>
	<text x="354.17" y="2363.59" style="font-family:'Helvetica';font-size:99.99px;fill:#000000" text-anchor="middle">0</text>
	<line x1="1501.34" y1="2233.63" x2="1501.34" y2="2273.73" style="stroke:#000000;stroke-width:5.76"/>
	<text x="1501.34" y="2363.59" style="font-family:'Helvetica';font-size:99.99px;fill:#000000" text-anchor="middle">5</text>
	<line x1="2648.50" y1="2233.63" x2="2648.50" y2="2273.73" style="stroke:#000000;stroke-width:5.76"/>
	<text x="2648.50" y="2363.59" style="font-family:'Helvetica';font-size:99.99px;fill:#000000" text-anchor="middle">10</text>
	<line x1="3795.66" y1="2233.63" x2="3795.66" y2="2273.73" style="stroke:#000000;stroke-width:5.76"/>
	<text x="3795.66" y="2363.59" style="font-family:'Helvetica';font-size:99.99px;fill:#000000" text-anchor="middle">15</text>
	<text x="2074.92" y="2473.60" style="font-family:'Helvetica';font-size:99.99px;fill:#000000" text-anchor="middle">Analysis time</text>
	<rect x="928.00" y="2558.24" width="2293.83" height="186.37" style="fill:#FFFFFF"/>
	<rect x="930.88" y="2561.12" width="2288.07" height="180.61" style="fill:none;stroke:#000000;stroke-width:5.76"/>
	<rect x="971.19" y="2601.43" width="374.34" height="99.99" style="fill:#DDE3E9"/>
	<rect x="975.51" y="2605.75" width="365.70" height="91.35" style="fill:none;stroke:#DDE3E9;stroke-width:8.64"/>
	<line x1="1886.82" y1="2651.43" x2="2261.16" y2="2651.43" style="stroke:#1A476F;stroke-width:8.64"/>
	<text x="1405.55" y="2686.46" style="font-family:'Helvetica';font-size:99.99px;fill:#000000">95% CI</text>
	<text x="2321.18" y="2686.46" style="font-family:'Helvetica';font-size:99.99px;fill:#000000">Cumulative hazard</text>
	<text x="2074.92" y="215.98" style="font-family:'Helvetica';font-size:139.96px;fill:#1E2D53" text-anchor="middle">Nelson–Aalen cumulative hazard estimate</text>
</svg>
